<svg id="svgQrWrapper" viewBox="0 0 300 300" xmlns="http://www.w3.org/2000/svg" xmlns:xlink="http://www.w3.org/1999/xlink" style="width: 100%; height: 100%; background-color: rgb(255, 255, 255);"><svg><g transform="translate(9, 9)scale(0.95)" fill="none"><svg width="300" height="300"><style>.background-color{ fill: #fff; }.dot-color{ fill: #000000; }.corners-square-color-0-0{ fill: #000000; }.corners-dot-color-0-0{ fill: #000000; }.corners-square-color-1-0{ fill: #000000; }.corners-dot-color-1-0{ fill: #000000; }.corners-square-color-0-1{ fill: #000000; }.corners-dot-color-0-1{ fill: #000000; }</style><defs/><g class="dot-color"><path d="M 1 82v 9h 9v -4.5a 4.5 4.5, 0, 0, 0, -4.5 -4.5" transform="rotate(-90,5.5,86.5)"/><path d="M 1 91v 9h 4.5a 4.5 4.5, 0, 0, 0, 0 -9" transform="rotate(90,5.5,95.5)"/><path d="M 1 109v 9h 9v -4.5a 4.5 4.5, 0, 0, 0, -4.5 -4.5" transform="rotate(-90,5.5,113.5)"/><rect x="1" y="118" width="9" height="9" transform="rotate(0,5.5,122.5)"/><rect x="1" y="127" width="9" height="9" transform="rotate(0,5.5,131.5)"/><rect x="1" y="136" width="9" height="9" transform="rotate(0,5.5,140.5)"/><path d="M 1 145v 9h 9v -4.5a 4.5 4.5, 0, 0, 0, -4.5 -4.5" transform="rotate(180,5.5,149.5)"/><circle cx="5.5" cy="176.5" r="4.5" transform="rotate(0,5.5,176.5)"/><path d="M 1 208v 9h 4.5a 4.5 4.5, 0, 0, 0, 0 -9" transform="rotate(-90,5.5,212.5)"/><path d="M 1 217v 9h 9v -4.5a 4.5 4.5, 0, 0, 0, -4.5 -4.5" transform="rotate(180,5.5,221.5)"/><path d="M 10 73v 9h 4.5a 4.5 4.5, 0, 0, 0, 0 -9" transform="rotate(-90,14.5,77.5)"/><rect x="10" y="82" width="9" height="9" transform="rotate(0,14.5,86.5)"/><path d="M 10 109v 9h 9v -4.5a 4.5 4.5, 0, 0, 0, -4.5 -4.5" transform="rotate(0,14.5,113.5)"/><path d="M 10 118v 9h 9v -4.5a 4.5 4.5, 0, 0, 0, -4.5 -4.5" transform="rotate(90,14.5,122.5)"/><rect x="10" y="145" width="9" height="9" transform="rotate(0,14.5,149.5)"/><path d="M 10 154v 9h 9v -4.5a 4.5 4.5, 0, 0, 0, -4.5 -4.5" transform="rotate(180,14.5,158.5)"/><path d="M 10 181v 9h 9v -4.5a 4.5 4.5, 0, 0, 0, -4.5 -4.5" transform="rotate(-90,14.5,185.5)"/><path d="M 10 190v 9h 9v -4.5a 4.5 4.5, 0, 0, 0, -4.5 -4.5" transform="rotate(180,14.5,194.5)"/><path d="M 10 217v 9h 4.5a 4.5 4.5, 0, 0, 0, 0 -9" transform="rotate(0,14.5,221.5)"/><path d="M 19 82v 9h 9v -4.5a 4.5 4.5, 0, 0, 0, -4.5 -4.5" transform="rotate(0,23.5,86.5)"/><path d="M 19 91v 9h 4.5a 4.5 4.5, 0, 0, 0, 0 -9" transform="rotate(90,23.5,95.5)"/><path d="M 19 136v 9h 9v -4.5a 4.5 4.5, 0, 0, 0, -4.5 -4.5" transform="rotate(-90,23.5,140.5)"/><rect x="19" y="145" width="9" height="9" transform="rotate(0,23.5,149.5)"/><rect x="19" y="154" width="9" height="9" transform="rotate(0,23.5,158.5)"/><path d="M 19 163v 9h 9v -4.5a 4.5 4.5, 0, 0, 0, -4.5 -4.5" transform="rotate(180,23.5,167.5)"/><path d="M 19 181v 9h 9v -4.5a 4.5 4.5, 0, 0, 0, -4.5 -4.5" transform="rotate(0,23.5,185.5)"/><path d="M 19 190v 9h 9v -4.5a 4.5 4.5, 0, 0, 0, -4.5 -4.5" transform="rotate(90,23.5,194.5)"/><path d="M 28 100v 9h 9v -4.5a 4.5 4.5, 0, 0, 0, -4.5 -4.5" transform="rotate(-90,32.5,104.5)"/><rect x="28" y="109" width="9" height="9" transform="rotate(0,32.5,113.5)"/><path d="M 28 118v 9h 4.5a 4.5 4.5, 0, 0, 0, 0 -9" transform="rotate(90,32.5,122.5)"/><path d="M 28 136v 9h 4.5a 4.5 4.5, 0, 0, 0, 0 -9" transform="rotate(0,32.5,140.5)"/><rect x="28" y="154" width="9" height="9" transform="rotate(0,32.5,158.5)"/><path d="M 28 163v 9h 9v -4.5a 4.5 4.5, 0, 0, 0, -4.5 -4.5" transform="rotate(90,32.5,167.5)"/><path d="M 28 217v 9h 4.5a 4.5 4.5, 0, 0, 0, 0 -9" transform="rotate(180,32.5,221.5)"/><circle cx="41.5" cy="86.5" r="4.5" transform="rotate(0,41.5,86.5)"/><path d="M 37 100v 9h 4.5a 4.5 4.5, 0, 0, 0, 0 -9" transform="rotate(0,41.5,104.5)"/><path d="M 37 154v 9h 4.5a 4.5 4.5, 0, 0, 0, 0 -9" transform="rotate(0,41.5,158.5)"/><path d="M 37 181v 9h 4.5a 4.5 4.5, 0, 0, 0, 0 -9" transform="rotate(180,41.5,185.5)"/><path d="M 37 217v 9h 4.5a 4.5 4.5, 0, 0, 0, 0 -9" transform="rotate(0,41.5,221.5)"/><path d="M 46 73v 9h 4.5a 4.5 4.5, 0, 0, 0, 0 -9" transform="rotate(180,50.5,77.5)"/><path d="M 46 91v 9h 4.5a 4.5 4.5, 0, 0, 0, 0 -9" transform="rotate(180,50.5,95.5)"/><path d="M 46 118v 9h 4.5a 4.5 4.5, 0, 0, 0, 0 -9" transform="rotate(-90,50.5,122.5)"/><rect x="46" y="127" width="9" height="9" transform="rotate(0,50.5,131.5)"/><rect x="46" y="136" width="9" height="9" transform="rotate(0,50.5,140.5)"/><path d="M 46 145v 9h 9v -4.5a 4.5 4.5, 0, 0, 0, -4.5 -4.5" transform="rotate(180,50.5,149.5)"/><path d="M 46 163v 9h 4.5a 4.5 4.5, 0, 0, 0, 0 -9" transform="rotate(180,50.5,167.5)"/><rect x="46" y="181" width="9" height="9" transform="rotate(0,50.5,185.5)"/><rect x="46" y="190" width="9" height="9" transform="rotate(0,50.5,194.5)"/><path d="M 46 199v 9h 9v -4.5a 4.5 4.5, 0, 0, 0, -4.5 -4.5" transform="rotate(180,50.5,203.5)"/><rect x="55" y="73" width="9" height="9" transform="rotate(0,59.5,77.5)"/><rect x="55" y="91" width="9" height="9" transform="rotate(0,59.5,95.5)"/><path d="M 55 109v 9h 4.5a 4.5 4.5, 0, 0, 0, 0 -9" transform="rotate(180,59.5,113.5)"/><path d="M 55 127v 9h 4.5a 4.5 4.5, 0, 0, 0, 0 -9" transform="rotate(0,59.5,131.5)"/><rect x="55" y="145" width="9" height="9" transform="rotate(0,59.5,149.5)"/><rect x="55" y="163" width="9" height="9" transform="rotate(0,59.5,167.5)"/><rect x="55" y="181" width="9" height="9" transform="rotate(0,59.5,185.5)"/><path d="M 55 199v 9h 4.5a 4.5 4.5, 0, 0, 0, 0 -9" transform="rotate(0,59.5,203.5)"/><circle cx="59.5" cy="221.5" r="4.5" transform="rotate(0,59.5,221.5)"/><path d="M 64 73v 9h 9v -4.5a 4.5 4.5, 0, 0, 0, -4.5 -4.5" transform="rotate(0,68.5,77.5)"/><rect x="64" y="82" width="9" height="9" transform="rotate(0,68.5,86.5)"/><rect x="64" y="91" width="9" height="9" transform="rotate(0,68.5,95.5)"/><rect x="64" y="100" width="9" height="9" transform="rotate(0,68.5,104.5)"/><path d="M 64 109v 9h 9v -4.5a 4.5 4.5, 0, 0, 0, -4.5 -4.5" transform="rotate(90,68.5,113.5)"/><path d="M 64 136v 9h 9v -4.5a 4.5 4.5, 0, 0, 0, -4.5 -4.5" transform="rotate(-90,68.5,140.5)"/><rect x="64" y="145" width="9" height="9" transform="rotate(0,68.5,149.5)"/><rect x="64" y="163" width="9" height="9" transform="rotate(0,68.5,167.5)"/><rect x="64" y="172" width="9" height="9" transform="rotate(0,68.5,176.5)"/><rect x="64" y="181" width="9" height="9" transform="rotate(0,68.5,185.5)"/><path d="M 64 190v 9h 9v -4.5a 4.5 4.5, 0, 0, 0, -4.5 -4.5" transform="rotate(180,68.5,194.5)"/><circle cx="68.5" cy="212.5" r="4.5" transform="rotate(0,68.5,212.5)"/><path d="M 73 37v 9h 4.5a 4.5 4.5, 0, 0, 0, 0 -9" transform="rotate(-90,77.5,41.5)"/><rect x="73" y="46" width="9" height="9" transform="rotate(0,77.5,50.5)"/><rect x="73" y="55" width="9" height="9" transform="rotate(0,77.5,59.5)"/><path d="M 73 64v 9h 9v -4.5a 4.5 4.5, 0, 0, 0, -4.5 -4.5" transform="rotate(180,77.5,68.5)"/><rect x="73" y="100" width="9" height="9" transform="rotate(0,77.5,104.5)"/><circle cx="77.5" cy="122.5" r="4.5" transform="rotate(0,77.5,122.5)"/><rect x="73" y="136" width="9" height="9" transform="rotate(0,77.5,140.5)"/><rect x="73" y="145" width="9" height="9" transform="rotate(0,77.5,149.5)"/><rect x="73" y="163" width="9" height="9" transform="rotate(0,77.5,167.5)"/><rect x="73" y="190" width="9" height="9" transform="rotate(0,77.5,194.5)"/><path d="M 73 199v 9h 4.5a 4.5 4.5, 0, 0, 0, 0 -9" transform="rotate(90,77.5,203.5)"/><path d="M 73 235v 9h 4.5a 4.5 4.5, 0, 0, 0, 0 -9" transform="rotate(-90,77.5,239.5)"/><path d="M 73 244v 9h 9v -4.5a 4.5 4.5, 0, 0, 0, -4.5 -4.5" transform="rotate(180,77.5,248.5)"/><path d="M 73 280v 9h 4.5a 4.5 4.5, 0, 0, 0, 0 -9" transform="rotate(180,77.5,284.5)"/><path d="M 82 10v 9h 4.5a 4.5 4.5, 0, 0, 0, 0 -9" transform="rotate(180,86.5,14.5)"/><rect x="82" y="46" width="9" height="9" transform="rotate(0,86.5,50.5)"/><rect x="82" y="64" width="9" height="9" transform="rotate(0,86.5,68.5)"/><rect x="82" y="73" width="9" height="9" transform="rotate(0,86.5,77.5)"/><path d="M 82 82v 9h 4.5a 4.5 4.5, 0, 0, 0, 0 -9" transform="rotate(90,86.5,86.5)"/><path d="M 82 100v 9h 9v -4.5a 4.5 4.5, 0, 0, 0, -4.5 -4.5" transform="rotate(0,86.5,104.5)"/><path d="M 82 109v 9h 4.5a 4.5 4.5, 0, 0, 0, 0 -9" transform="rotate(90,86.5,113.5)"/><rect x="82" y="136" width="9" height="9" transform="rotate(0,86.5,140.5)"/><rect x="82" y="145" width="9" height="9" transform="rotate(0,86.5,149.5)"/><rect x="82" y="154" width="9" height="9" transform="rotate(0,86.5,158.5)"/><rect x="82" y="163" width="9" height="9" transform="rotate(0,86.5,167.5)"/><rect x="82" y="172" width="9" height="9" transform="rotate(0,86.5,176.5)"/><rect x="82" y="181" width="9" height="9" transform="rotate(0,86.5,185.5)"/><path d="M 82 190v 9h 9v -4.5a 4.5 4.5, 0, 0, 0, -4.5 -4.5" transform="rotate(90,86.5,194.5)"/><rect x="82" y="244" width="9" height="9" transform="rotate(0,86.5,248.5)"/><circle cx="86.5" cy="266.5" r="4.5" transform="rotate(0,86.5,266.5)"/><rect x="82" y="280" width="9" height="9" transform="rotate(0,86.5,284.5)"/><path d="M 91 1v 9h 4.5a 4.5 4.5, 0, 0, 0, 0 -9" transform="rotate(-90,95.5,5.5)"/><rect x="91" y="10" width="9" height="9" transform="rotate(0,95.5,14.5)"/><path d="M 91 28v 9h 9v -4.5a 4.5 4.5, 0, 0, 0, -4.5 -4.5" transform="rotate(-90,95.5,32.5)"/><rect x="91" y="37" width="9" height="9" transform="rotate(0,95.5,41.5)"/><rect x="91" y="46" width="9" height="9" transform="rotate(0,95.5,50.5)"/><rect x="91" y="55" width="9" height="9" transform="rotate(0,95.5,59.5)"/><rect x="91" y="64" width="9" height="9" transform="rotate(0,95.5,68.5)"/><path d="M 91 73v 9h 9v -4.5a 4.5 4.5, 0, 0, 0, -4.5 -4.5" transform="rotate(90,95.5,77.5)"/><path d="M 91 91v 9h 4.5a 4.5 4.5, 0, 0, 0, 0 -9" transform="rotate(180,95.5,95.5)"/><path d="M 91 118v 9h 4.5a 4.5 4.5, 0, 0, 0, 0 -9" transform="rotate(-90,95.5,122.5)"/><rect x="91" y="127" width="9" height="9" transform="rotate(0,95.5,131.5)"/><rect x="91" y="136" width="9" height="9" transform="rotate(0,95.5,140.5)"/><path d="M 91 208v 9h 9v -4.5a 4.5 4.5, 0, 0, 0, -4.5 -4.5" transform="rotate(-90,95.5,212.5)"/><path d="M 91 217v 9h 9v -4.5a 4.5 4.5, 0, 0, 0, -4.5 -4.5" transform="rotate(180,95.5,221.5)"/><path d="M 91 244v 9h 9v -4.5a 4.5 4.5, 0, 0, 0, -4.5 -4.5" transform="rotate(0,95.5,248.5)"/><path d="M 91 253v 9h 9v -4.5a 4.5 4.5, 0, 0, 0, -4.5 -4.5" transform="rotate(180,95.5,257.5)"/><path d="M 91 271v 9h 4.5a 4.5 4.5, 0, 0, 0, 0 -9" transform="rotate(-90,95.5,275.5)"/><rect x="91" y="280" width="9" height="9" transform="rotate(0,95.5,284.5)"/><path d="M 100 10v 9h 4.5a 4.5 4.5, 0, 0, 0, 0 -9" transform="rotate(0,104.5,14.5)"/><rect x="100" y="28" width="9" height="9" transform="rotate(0,104.5,32.5)"/><path d="M 100 64v 9h 4.5a 4.5 4.5, 0, 0, 0, 0 -9" transform="rotate(0,104.5,68.5)"/><path d="M 100 91v 9h 9v -4.5a 4.5 4.5, 0, 0, 0, -4.5 -4.5" transform="rotate(0,104.5,95.5)"/><path d="M 100 100v 9h 4.5a 4.5 4.5, 0, 0, 0, 0 -9" transform="rotate(90,104.5,104.5)"/><rect x="100" y="127" width="9" height="9" transform="rotate(0,104.5,131.5)"/><rect x="100" y="136" width="9" height="9" transform="rotate(0,104.5,140.5)"/><path d="M 100 163v 9h 4.5a 4.5 4.5, 0, 0, 0, 0 -9" transform="rotate(180,104.5,167.5)"/><path d="M 100 181v 9h 4.5a 4.5 4.5, 0, 0, 0, 0 -9" transform="rotate(180,104.5,185.5)"/><path d="M 100 199v 9h 9v -4.5a 4.5 4.5, 0, 0, 0, -4.5 -4.5" transform="rotate(-90,104.5,203.5)"/><rect x="100" y="208" width="9" height="9" transform="rotate(0,104.5,212.5)"/><rect x="100" y="217" width="9" height="9" transform="rotate(0,104.5,221.5)"/><path d="M 100 226v 9h 4.5a 4.5 4.5, 0, 0, 0, 0 -9" transform="rotate(90,104.5,230.5)"/><path d="M 100 253v 9h 4.5a 4.5 4.5, 0, 0, 0, 0 -9" transform="rotate(0,104.5,257.5)"/><path d="M 100 280v 9h 4.5a 4.5 4.5, 0, 0, 0, 0 -9" transform="rotate(0,104.5,284.5)"/><circle cx="113.5" cy="5.5" r="4.5" transform="rotate(0,113.5,5.5)"/><path d="M 109 19v 9h 9v -4.5a 4.5 4.5, 0, 0, 0, -4.5 -4.5" transform="rotate(-90,113.5,23.5)"/><path d="M 109 28v 9h 9v -4.5a 4.5 4.5, 0, 0, 0, -4.5 -4.5" transform="rotate(90,113.5,32.5)"/><circle cx="113.5" cy="59.5" r="4.5" transform="rotate(0,113.5,59.5)"/><path d="M 109 73v 9h 4.5a 4.5 4.5, 0, 0, 0, 0 -9" transform="rotate(-90,113.5,77.5)"/><path d="M 109 82v 9h 4.5a 4.5 4.5, 0, 0, 0, 0 -9" transform="rotate(90,113.5,86.5)"/><path d="M 109 127v 9h 9v -4.5a 4.5 4.5, 0, 0, 0, -4.5 -4.5" transform="rotate(0,113.5,131.5)"/><rect x="109" y="136" width="9" height="9" transform="rotate(0,113.5,140.5)"/><path d="M 109 145v 9h 4.5a 4.5 4.5, 0, 0, 0, 0 -9" transform="rotate(90,113.5,149.5)"/><rect x="109" y="163" width="9" height="9" transform="rotate(0,113.5,167.5)"/><path d="M 109 181v 9h 4.5a 4.5 4.5, 0, 0, 0, 0 -9" transform="rotate(0,113.5,185.5)"/><path d="M 109 199v 9h 4.5a 4.5 4.5, 0, 0, 0, 0 -9" transform="rotate(0,113.5,203.5)"/><path d="M 109 217v 9h 4.5a 4.5 4.5, 0, 0, 0, 0 -9" transform="rotate(0,113.5,221.5)"/><circle cx="113.5" cy="239.5" r="4.5" transform="rotate(0,113.5,239.5)"/><circle cx="113.5" cy="275.5" r="4.5" transform="rotate(0,113.5,275.5)"/><path d="M 118 10v 9h 4.5a 4.5 4.5, 0, 0, 0, 0 -9" transform="rotate(-90,122.5,14.5)"/><rect x="118" y="19" width="9" height="9" transform="rotate(0,122.5,23.5)"/><path d="M 118 91v 9h 4.5a 4.5 4.5, 0, 0, 0, 0 -9" transform="rotate(180,122.5,95.5)"/><path d="M 118 109v 9h 4.5a 4.5 4.5, 0, 0, 0, 0 -9" transform="rotate(-90,122.5,113.5)"/><path d="M 118 118v 9h 9v -4.5a 4.5 4.5, 0, 0, 0, -4.5 -4.5" transform="rotate(180,122.5,122.5)"/><rect x="118" y="136" width="9" height="9" transform="rotate(0,122.5,140.5)"/><path d="M 118 154v 9h 9v -4.5a 4.5 4.5, 0, 0, 0, -4.5 -4.5" transform="rotate(-90,122.5,158.5)"/><rect x="118" y="163" width="9" height="9" transform="rotate(0,122.5,167.5)"/><path d="M 118 172v 9h 4.5a 4.5 4.5, 0, 0, 0, 0 -9" transform="rotate(90,122.5,176.5)"/><circle cx="122.5" cy="194.5" r="4.5" transform="rotate(0,122.5,194.5)"/><path d="M 118 208v 9h 4.5a 4.5 4.5, 0, 0, 0, 0 -9" transform="rotate(180,122.5,212.5)"/><path d="M 118 244v 9h 9v -4.5a 4.5 4.5, 0, 0, 0, -4.5 -4.5" transform="rotate(-90,122.5,248.5)"/><rect x="118" y="253" width="9" height="9" transform="rotate(0,122.5,257.5)"/><path d="M 118 262v 9h 9v -4.5a 4.5 4.5, 0, 0, 0, -4.5 -4.5" transform="rotate(180,122.5,266.5)"/><path d="M 118 280v 9h 4.5a 4.5 4.5, 0, 0, 0, 0 -9" transform="rotate(180,122.5,284.5)"/><path d="M 127 19v 9h 9v -4.5a 4.5 4.5, 0, 0, 0, -4.5 -4.5" transform="rotate(0,131.5,23.5)"/><path d="M 127 28v 9h 4.5a 4.5 4.5, 0, 0, 0, 0 -9" transform="rotate(90,131.5,32.5)"/><circle cx="131.5" cy="59.5" r="4.5" transform="rotate(0,131.5,59.5)"/><path d="M 127 82v 9h 9v -4.5a 4.5 4.5, 0, 0, 0, -4.5 -4.5" transform="rotate(-90,131.5,86.5)"/><rect x="127" y="91" width="9" height="9" transform="rotate(0,131.5,95.5)"/><path d="M 127 100v 9h 9v -4.5a 4.5 4.5, 0, 0, 0, -4.5 -4.5" transform="rotate(180,131.5,104.5)"/><rect x="127" y="118" width="9" height="9" transform="rotate(0,131.5,122.5)"/><rect x="127" y="127" width="9" height="9" transform="rotate(0,131.5,131.5)"/><rect x="127" y="136" width="9" height="9" transform="rotate(0,131.5,140.5)"/><rect x="127" y="145" width="9" height="9" transform="rotate(0,131.5,149.5)"/><rect x="127" y="154" width="9" height="9" transform="rotate(0,131.5,158.5)"/><path d="M 127 163v 9h 9v -4.5a 4.5 4.5, 0, 0, 0, -4.5 -4.5" transform="rotate(90,131.5,167.5)"/><path d="M 127 208v 9h 4.5a 4.5 4.5, 0, 0, 0, 0 -9" transform="rotate(0,131.5,212.5)"/><path d="M 127 244v 9h 4.5a 4.5 4.5, 0, 0, 0, 0 -9" transform="rotate(0,131.5,248.5)"/><path d="M 127 262v 9h 9v -4.5a 4.5 4.5, 0, 0, 0, -4.5 -4.5" transform="rotate(0,131.5,266.5)"/><rect x="127" y="271" width="9" height="9" transform="rotate(0,131.5,275.5)"/><path d="M 127 280v 9h 9v -4.5a 4.5 4.5, 0, 0, 0, -4.5 -4.5" transform="rotate(90,131.5,284.5)"/><path d="M 136 1v 9h 9v -4.5a 4.5 4.5, 0, 0, 0, -4.5 -4.5" transform="rotate(-90,140.5,5.5)"/><path d="M 136 10v 9h 9v -4.5a 4.5 4.5, 0, 0, 0, -4.5 -4.5" transform="rotate(180,140.5,14.5)"/><path d="M 136 46v 9h 4.5a 4.5 4.5, 0, 0, 0, 0 -9" transform="rotate(180,140.5,50.5)"/><path d="M 136 73v 9h 9v -4.5a 4.5 4.5, 0, 0, 0, -4.5 -4.5" transform="rotate(-90,140.5,77.5)"/><path d="M 136 82v 9h 9v -4.5a 4.5 4.5, 0, 0, 0, -4.5 -4.5" transform="rotate(90,140.5,86.5)"/><rect x="136" y="100" width="9" height="9" transform="rotate(0,140.5,104.5)"/><rect x="136" y="109" width="9" height="9" transform="rotate(0,140.5,113.5)"/><rect x="136" y="118" width="9" height="9" transform="rotate(0,140.5,122.5)"/><path d="M 136 127v 9h 9v -4.5a 4.5 4.5, 0, 0, 0, -4.5 -4.5" transform="rotate(90,140.5,131.5)"/><rect x="136" y="145" width="9" height="9" transform="rotate(0,140.5,149.5)"/><rect x="136" y="154" width="9" height="9" transform="rotate(0,140.5,158.5)"/><path d="M 136 172v 9h 4.5a 4.5 4.5, 0, 0, 0, 0 -9" transform="rotate(-90,140.5,176.5)"/><rect x="136" y="181" width="9" height="9" transform="rotate(0,140.5,185.5)"/><path d="M 136 190v 9h 9v -4.5a 4.5 4.5, 0, 0, 0, -4.5 -4.5" transform="rotate(180,140.5,194.5)"/><circle cx="140.5" cy="221.5" r="4.5" transform="rotate(0,140.5,221.5)"/><rect x="136" y="271" width="9" height="9" transform="rotate(0,140.5,275.5)"/><circle cx="140.5" cy="293.5" r="4.5" transform="rotate(0,140.5,293.5)"/><path d="M 145 1v 9h 9v -4.5a 4.5 4.5, 0, 0, 0, -4.5 -4.5" transform="rotate(0,149.5,5.5)"/><rect x="145" y="10" width="9" height="9" transform="rotate(0,149.5,14.5)"/><rect x="145" y="19" width="9" height="9" transform="rotate(0,149.5,23.5)"/><path d="M 145 28v 9h 9v -4.5a 4.5 4.5, 0, 0, 0, -4.5 -4.5" transform="rotate(180,149.5,32.5)"/><path d="M 145 46v 9h 9v -4.5a 4.5 4.5, 0, 0, 0, -4.5 -4.5" transform="rotate(0,149.5,50.5)"/><rect x="145" y="55" width="9" height="9" transform="rotate(0,149.5,59.5)"/><rect x="145" y="64" width="9" height="9" transform="rotate(0,149.5,68.5)"/><rect x="145" y="73" width="9" height="9" transform="rotate(0,149.5,77.5)"/><path d="M 145 100v 9h 9v -4.5a 4.5 4.5, 0, 0, 0, -4.5 -4.5" transform="rotate(0,149.5,104.5)"/><rect x="145" y="109" width="9" height="9" transform="rotate(0,149.5,113.5)"/><rect x="145" y="145" width="9" height="9" transform="rotate(0,149.5,149.5)"/><rect x="145" y="154" width="9" height="9" transform="rotate(0,149.5,158.5)"/><path d="M 145 163v 9h 4.5a 4.5 4.5, 0, 0, 0, 0 -9" transform="rotate(90,149.5,167.5)"/><path d="M 145 181v 9h 9v -4.5a 4.5 4.5, 0, 0, 0, -4.5 -4.5" transform="rotate(0,149.5,185.5)"/><rect x="145" y="190" width="9" height="9" transform="rotate(0,149.5,194.5)"/><path d="M 145 208v 9h 4.5a 4.5 4.5, 0, 0, 0, 0 -9" transform="rotate(180,149.5,212.5)"/><path d="M 145 235v 9h 4.5a 4.5 4.5, 0, 0, 0, 0 -9" transform="rotate(-90,149.5,239.5)"/><path d="M 145 244v 9h 9v -4.5a 4.5 4.5, 0, 0, 0, -4.5 -4.5" transform="rotate(180,149.5,248.5)"/><path d="M 145 271v 9h 9v -4.5a 4.5 4.5, 0, 0, 0, -4.5 -4.5" transform="rotate(0,149.5,275.5)"/><path d="M 145 280v 9h 9v -4.5a 4.5 4.5, 0, 0, 0, -4.5 -4.5" transform="rotate(180,149.5,284.5)"/><rect x="154" y="28" width="9" height="9" transform="rotate(0,158.5,32.5)"/><path d="M 154 37v 9h 9v -4.5a 4.5 4.5, 0, 0, 0, -4.5 -4.5" transform="rotate(180,158.5,41.5)"/><path d="M 154 64v 9h 9v -4.5a 4.5 4.5, 0, 0, 0, -4.5 -4.5" transform="rotate(0,158.5,68.5)"/><path d="M 154 73v 9h 9v -4.5a 4.5 4.5, 0, 0, 0, -4.5 -4.5" transform="rotate(90,158.5,77.5)"/><path d="M 154 91v 9h 4.5a 4.5 4.5, 0, 0, 0, 0 -9" transform="rotate(180,158.5,95.5)"/><rect x="154" y="109" width="9" height="9" transform="rotate(0,158.5,113.5)"/><rect x="154" y="118" width="9" height="9" transform="rotate(0,158.5,122.5)"/><rect x="154" y="127" width="9" height="9" transform="rotate(0,158.5,131.5)"/><rect x="154" y="136" width="9" height="9" transform="rotate(0,158.5,140.5)"/><rect x="154" y="145" width="9" height="9" transform="rotate(0,158.5,149.5)"/><path d="M 154 190v 9h 4.5a 4.5 4.5, 0, 0, 0, 0 -9" transform="rotate(0,158.5,194.5)"/><rect x="154" y="208" width="9" height="9" transform="rotate(0,158.5,212.5)"/><rect x="154" y="217" width="9" height="9" transform="rotate(0,158.5,221.5)"/><path d="M 154 226v 9h 4.5a 4.5 4.5, 0, 0, 0, 0 -9" transform="rotate(90,158.5,230.5)"/><rect x="154" y="244" width="9" height="9" transform="rotate(0,158.5,248.5)"/><path d="M 154 280v 9h 9v -4.5a 4.5 4.5, 0, 0, 0, -4.5 -4.5" transform="rotate(0,158.5,284.5)"/><path d="M 154 289v 9h 4.5a 4.5 4.5, 0, 0, 0, 0 -9" transform="rotate(90,158.5,293.5)"/><circle cx="167.5" cy="5.5" r="4.5" transform="rotate(0,167.5,5.5)"/><rect x="163" y="28" width="9" height="9" transform="rotate(0,167.5,32.5)"/><rect x="163" y="37" width="9" height="9" transform="rotate(0,167.5,41.5)"/><rect x="163" y="46" width="9" height="9" transform="rotate(0,167.5,50.5)"/><path d="M 163 55v 9h 4.5a 4.5 4.5, 0, 0, 0, 0 -9" transform="rotate(90,167.5,59.5)"/><path d="M 163 82v 9h 4.5a 4.5 4.5, 0, 0, 0, 0 -9" transform="rotate(-90,167.5,86.5)"/><rect x="163" y="91" width="9" height="9" transform="rotate(0,167.5,95.5)"/><path d="M 163 109v 9h 9v -4.5a 4.5 4.5, 0, 0, 0, -4.5 -4.5" transform="rotate(0,167.5,113.5)"/><path d="M 163 118v 9h 9v -4.5a 4.5 4.5, 0, 0, 0, -4.5 -4.5" transform="rotate(90,167.5,122.5)"/><path d="M 163 145v 9h 9v -4.5a 4.5 4.5, 0, 0, 0, -4.5 -4.5" transform="rotate(0,167.5,149.5)"/><rect x="163" y="154" width="9" height="9" transform="rotate(0,167.5,158.5)"/><rect x="163" y="163" width="9" height="9" transform="rotate(0,167.5,167.5)"/><path d="M 163 172v 9h 4.5a 4.5 4.5, 0, 0, 0, 0 -9" transform="rotate(90,167.5,176.5)"/><path d="M 163 208v 9h 9v -4.5a 4.5 4.5, 0, 0, 0, -4.5 -4.5" transform="rotate(0,167.5,212.5)"/><path d="M 163 217v 9h 9v -4.5a 4.5 4.5, 0, 0, 0, -4.5 -4.5" transform="rotate(90,167.5,221.5)"/><rect x="163" y="244" width="9" height="9" transform="rotate(0,167.5,248.5)"/><circle cx="167.5" cy="266.5" r="4.5" transform="rotate(0,167.5,266.5)"/><rect x="172" y="28" width="9" height="9" transform="rotate(0,176.5,32.5)"/><rect x="172" y="46" width="9" height="9" transform="rotate(0,176.5,50.5)"/><path d="M 172 73v 9h 4.5a 4.5 4.5, 0, 0, 0, 0 -9" transform="rotate(180,176.5,77.5)"/><path d="M 172 91v 9h 9v -4.5a 4.5 4.5, 0, 0, 0, -4.5 -4.5" transform="rotate(0,176.5,95.5)"/><path d="M 172 100v 9h 9v -4.5a 4.5 4.5, 0, 0, 0, -4.5 -4.5" transform="rotate(180,176.5,104.5)"/><path d="M 172 127v 9h 4.5a 4.5 4.5, 0, 0, 0, 0 -9" transform="rotate(-90,176.5,131.5)"/><path d="M 172 136v 9h 9v -4.5a 4.5 4.5, 0, 0, 0, -4.5 -4.5" transform="rotate(180,176.5,140.5)"/><path d="M 172 154v 9h 4.5a 4.5 4.5, 0, 0, 0, 0 -9" transform="rotate(0,176.5,158.5)"/><path d="M 172 181v 9h 4.5a 4.5 4.5, 0, 0, 0, 0 -9" transform="rotate(-90,176.5,185.5)"/><path d="M 172 190v 9h 9v -4.5a 4.5 4.5, 0, 0, 0, -4.5 -4.5" transform="rotate(180,176.5,194.5)"/><path d="M 172 226v 9h 4.5a 4.5 4.5, 0, 0, 0, 0 -9" transform="rotate(180,176.5,230.5)"/><rect x="172" y="244" width="9" height="9" transform="rotate(0,176.5,248.5)"/><path d="M 172 253v 9h 9v -4.5a 4.5 4.5, 0, 0, 0, -4.5 -4.5" transform="rotate(180,176.5,257.5)"/><path d="M 172 280v 9h 4.5a 4.5 4.5, 0, 0, 0, 0 -9" transform="rotate(180,176.5,284.5)"/><path d="M 181 1v 9h 9v -4.5a 4.5 4.5, 0, 0, 0, -4.5 -4.5" transform="rotate(-90,185.5,5.5)"/><path d="M 181 10v 9h 9v -4.5a 4.5 4.5, 0, 0, 0, -4.5 -4.5" transform="rotate(180,185.5,14.5)"/><rect x="181" y="28" width="9" height="9" transform="rotate(0,185.5,32.5)"/><rect x="181" y="37" width="9" height="9" transform="rotate(0,185.5,41.5)"/><rect x="181" y="46" width="9" height="9" transform="rotate(0,185.5,50.5)"/><rect x="181" y="55" width="9" height="9" transform="rotate(0,185.5,59.5)"/><rect x="181" y="64" width="9" height="9" transform="rotate(0,185.5,68.5)"/><rect x="181" y="73" width="9" height="9" transform="rotate(0,185.5,77.5)"/><path d="M 181 82v 9h 9v -4.5a 4.5 4.5, 0, 0, 0, -4.5 -4.5" transform="rotate(180,185.5,86.5)"/><path d="M 181 100v 9h 4.5a 4.5 4.5, 0, 0, 0, 0 -9" transform="rotate(0,185.5,104.5)"/><rect x="181" y="136" width="9" height="9" transform="rotate(0,185.5,140.5)"/><path d="M 181 145v 9h 4.5a 4.5 4.5, 0, 0, 0, 0 -9" transform="rotate(90,185.5,149.5)"/><path d="M 181 172v 9h 4.5a 4.5 4.5, 0, 0, 0, 0 -9" transform="rotate(180,185.5,176.5)"/><path d="M 181 190v 9h 9v -4.5a 4.5 4.5, 0, 0, 0, -4.5 -4.5" transform="rotate(0,185.5,194.5)"/><path d="M 181 199v 9h 4.5a 4.5 4.5, 0, 0, 0, 0 -9" transform="rotate(90,185.5,203.5)"/><path d="M 181 217v 9h 4.5a 4.5 4.5, 0, 0, 0, 0 -9" transform="rotate(-90,185.5,221.5)"/><rect x="181" y="226" width="9" height="9" transform="rotate(0,185.5,230.5)"/><rect x="181" y="235" width="9" height="9" transform="rotate(0,185.5,239.5)"/><rect x="181" y="244" width="9" height="9" transform="rotate(0,185.5,248.5)"/><rect x="181" y="253" width="9" height="9" transform="rotate(0,185.5,257.5)"/><path d="M 181 262v 9h 9v -4.5a 4.5 4.5, 0, 0, 0, -4.5 -4.5" transform="rotate(180,185.5,266.5)"/><rect x="181" y="280" width="9" height="9" transform="rotate(0,185.5,284.5)"/><path d="M 190 1v 9h 9v -4.5a 4.5 4.5, 0, 0, 0, -4.5 -4.5" transform="rotate(0,194.5,5.5)"/><rect x="190" y="10" width="9" height="9" transform="rotate(0,194.5,14.5)"/><rect x="190" y="19" width="9" height="9" transform="rotate(0,194.5,23.5)"/><path d="M 190 28v 9h 9v -4.5a 4.5 4.5, 0, 0, 0, -4.5 -4.5" transform="rotate(90,194.5,32.5)"/><rect x="190" y="46" width="9" height="9" transform="rotate(0,194.5,50.5)"/><path d="M 190 64v 9h 9v -4.5a 4.5 4.5, 0, 0, 0, -4.5 -4.5" transform="rotate(0,194.5,68.5)"/><rect x="190" y="73" width="9" height="9" transform="rotate(0,194.5,77.5)"/><rect x="190" y="82" width="9" height="9" transform="rotate(0,194.5,86.5)"/><path d="M 190 109v 9h 9v -4.5a 4.5 4.5, 0, 0, 0, -4.5 -4.5" transform="rotate(-90,194.5,113.5)"/><path d="M 190 118v 9h 4.5a 4.5 4.5, 0, 0, 0, 0 -9" transform="rotate(90,194.5,122.5)"/><rect x="190" y="136" width="9" height="9" transform="rotate(0,194.5,140.5)"/><circle cx="194.5" cy="158.5" r="4.5" transform="rotate(0,194.5,158.5)"/><rect x="190" y="172" width="9" height="9" transform="rotate(0,194.5,176.5)"/><path d="M 190 235v 9h 9v -4.5a 4.5 4.5, 0, 0, 0, -4.5 -4.5" transform="rotate(0,194.5,239.5)"/><path d="M 190 244v 9h 9v -4.5a 4.5 4.5, 0, 0, 0, -4.5 -4.5" transform="rotate(90,194.5,248.5)"/><path d="M 190 262v 9h 9v -4.5a 4.5 4.5, 0, 0, 0, -4.5 -4.5" transform="rotate(0,194.5,266.5)"/><rect x="190" y="271" width="9" height="9" transform="rotate(0,194.5,275.5)"/><path d="M 190 280v 9h 9v -4.5a 4.5 4.5, 0, 0, 0, -4.5 -4.5" transform="rotate(90,194.5,284.5)"/><rect x="199" y="46" width="9" height="9" transform="rotate(0,203.5,50.5)"/><path d="M 199 55v 9h 4.5a 4.5 4.5, 0, 0, 0, 0 -9" transform="rotate(90,203.5,59.5)"/><rect x="199" y="73" width="9" height="9" transform="rotate(0,203.5,77.5)"/><path d="M 199 82v 9h 9v -4.5a 4.5 4.5, 0, 0, 0, -4.5 -4.5" transform="rotate(90,203.5,86.5)"/><path d="M 199 109v 9h 4.5a 4.5 4.5, 0, 0, 0, 0 -9" transform="rotate(0,203.5,113.5)"/><path d="M 199 127v 9h 4.5a 4.5 4.5, 0, 0, 0, 0 -9" transform="rotate(-90,203.5,131.5)"/><rect x="199" y="136" width="9" height="9" transform="rotate(0,203.5,140.5)"/><path d="M 199 145v 9h 4.5a 4.5 4.5, 0, 0, 0, 0 -9" transform="rotate(90,203.5,149.5)"/><rect x="199" y="172" width="9" height="9" transform="rotate(0,203.5,176.5)"/><path d="M 199 190v 9h 4.5a 4.5 4.5, 0, 0, 0, 0 -9" transform="rotate(180,203.5,194.5)"/><circle cx="203.5" cy="257.5" r="4.5" transform="rotate(0,203.5,257.5)"/><rect x="208" y="46" width="9" height="9" transform="rotate(0,212.5,50.5)"/><path d="M 208 64v 9h 4.5a 4.5 4.5, 0, 0, 0, 0 -9" transform="rotate(-90,212.5,68.5)"/><path d="M 208 73v 9h 9v -4.5a 4.5 4.5, 0, 0, 0, -4.5 -4.5" transform="rotate(90,212.5,77.5)"/><path d="M 208 91v 9h 9v -4.5a 4.5 4.5, 0, 0, 0, -4.5 -4.5" transform="rotate(-90,212.5,95.5)"/><path d="M 208 100v 9h 9v -4.5a 4.5 4.5, 0, 0, 0, -4.5 -4.5" transform="rotate(180,212.5,104.5)"/><path d="M 208 118v 9h 4.5a 4.5 4.5, 0, 0, 0, 0 -9" transform="rotate(180,212.5,122.5)"/><path d="M 208 136v 9h 4.5a 4.5 4.5, 0, 0, 0, 0 -9" transform="rotate(0,212.5,140.5)"/><path d="M 208 154v 9h 4.5a 4.5 4.5, 0, 0, 0, 0 -9" transform="rotate(180,212.5,158.5)"/><rect x="208" y="172" width="9" height="9" transform="rotate(0,212.5,176.5)"/><rect x="208" y="190" width="9" height="9" transform="rotate(0,212.5,194.5)"/><path d="M 208 217v 9h 4.5a 4.5 4.5, 0, 0, 0, 0 -9" transform="rotate(180,212.5,221.5)"/><circle cx="212.5" cy="266.5" r="4.5" transform="rotate(0,212.5,266.5)"/><circle cx="212.5" cy="284.5" r="4.5" transform="rotate(0,212.5,284.5)"/><path d="M 217 1v 9h 4.5a 4.5 4.5, 0, 0, 0, 0 -9" transform="rotate(-90,221.5,5.5)"/><path d="M 217 10v 9h 4.5a 4.5 4.5, 0, 0, 0, 0 -9" transform="rotate(90,221.5,14.5)"/><path d="M 217 28v 9h 4.5a 4.5 4.5, 0, 0, 0, 0 -9" transform="rotate(-90,221.5,32.5)"/><rect x="217" y="37" width="9" height="9" transform="rotate(0,221.5,41.5)"/><rect x="217" y="46" width="9" height="9" transform="rotate(0,221.5,50.5)"/><path d="M 217 55v 9h 4.5a 4.5 4.5, 0, 0, 0, 0 -9" transform="rotate(90,221.5,59.5)"/><path d="M 217 91v 9h 9v -4.5a 4.5 4.5, 0, 0, 0, -4.5 -4.5" transform="rotate(0,221.5,95.5)"/><path d="M 217 100v 9h 9v -4.5a 4.5 4.5, 0, 0, 0, -4.5 -4.5" transform="rotate(90,221.5,104.5)"/><rect x="217" y="118" width="9" height="9" transform="rotate(0,221.5,122.5)"/><path d="M 217 127v 9h 4.5a 4.5 4.5, 0, 0, 0, 0 -9" transform="rotate(90,221.5,131.5)"/><path d="M 217 145v 9h 9v -4.5a 4.5 4.5, 0, 0, 0, -4.5 -4.5" transform="rotate(-90,221.5,149.5)"/><rect x="217" y="154" width="9" height="9" transform="rotate(0,221.5,158.5)"/><path d="M 217 172v 9h 9v -4.5a 4.5 4.5, 0, 0, 0, -4.5 -4.5" transform="rotate(0,221.5,176.5)"/><rect x="217" y="181" width="9" height="9" transform="rotate(0,221.5,185.5)"/><rect x="217" y="190" width="9" height="9" transform="rotate(0,221.5,194.5)"/><rect x="217" y="199" width="9" height="9" transform="rotate(0,221.5,203.5)"/><rect x="217" y="208" width="9" height="9" transform="rotate(0,221.5,212.5)"/><rect x="217" y="217" width="9" height="9" transform="rotate(0,221.5,221.5)"/><rect x="217" y="226" width="9" height="9" transform="rotate(0,221.5,230.5)"/><rect x="217" y="235" width="9" height="9" transform="rotate(0,221.5,239.5)"/><rect x="217" y="244" width="9" height="9" transform="rotate(0,221.5,248.5)"/><path d="M 217 253v 9h 9v -4.5a 4.5 4.5, 0, 0, 0, -4.5 -4.5" transform="rotate(180,221.5,257.5)"/><path d="M 226 73v 9h 9v -4.5a 4.5 4.5, 0, 0, 0, -4.5 -4.5" transform="rotate(-90,230.5,77.5)"/><path d="M 226 82v 9h 4.5a 4.5 4.5, 0, 0, 0, 0 -9" transform="rotate(90,230.5,86.5)"/><path d="M 226 109v 9h 9v -4.5a 4.5 4.5, 0, 0, 0, -4.5 -4.5" transform="rotate(-90,230.5,113.5)"/><path d="M 226 118v 9h 9v -4.5a 4.5 4.5, 0, 0, 0, -4.5 -4.5" transform="rotate(90,230.5,122.5)"/><path d="M 226 136v 9h 4.5a 4.5 4.5, 0, 0, 0, 0 -9" transform="rotate(-90,230.5,140.5)"/><rect x="226" y="145" width="9" height="9" transform="rotate(0,230.5,149.5)"/><rect x="226" y="154" width="9" height="9" transform="rotate(0,230.5,158.5)"/><path d="M 226 163v 9h 9v -4.5a 4.5 4.5, 0, 0, 0, -4.5 -4.5" transform="rotate(180,230.5,167.5)"/><rect x="226" y="199" width="9" height="9" transform="rotate(0,230.5,203.5)"/><rect x="226" y="208" width="9" height="9" transform="rotate(0,230.5,212.5)"/><rect x="226" y="217" width="9" height="9" transform="rotate(0,230.5,221.5)"/><rect x="226" y="253" width="9" height="9" transform="rotate(0,230.5,257.5)"/><rect x="226" y="262" width="9" height="9" transform="rotate(0,230.5,266.5)"/><rect x="226" y="271" width="9" height="9" transform="rotate(0,230.5,275.5)"/><path d="M 226 280v 9h 9v -4.5a 4.5 4.5, 0, 0, 0, -4.5 -4.5" transform="rotate(180,230.5,284.5)"/><rect x="235" y="73" width="9" height="9" transform="rotate(0,239.5,77.5)"/><path d="M 235 100v 9h 4.5a 4.5 4.5, 0, 0, 0, 0 -9" transform="rotate(-90,239.5,104.5)"/><path d="M 235 109v 9h 9v -4.5a 4.5 4.5, 0, 0, 0, -4.5 -4.5" transform="rotate(90,239.5,113.5)"/><rect x="235" y="163" width="9" height="9" transform="rotate(0,239.5,167.5)"/><path d="M 235 172v 9h 9v -4.5a 4.5 4.5, 0, 0, 0, -4.5 -4.5" transform="rotate(180,239.5,176.5)"/><path d="M 235 190v 9h 9v -4.5a 4.5 4.5, 0, 0, 0, -4.5 -4.5" transform="rotate(-90,239.5,194.5)"/><path d="M 235 199v 9h 9v -4.5a 4.5 4.5, 0, 0, 0, -4.5 -4.5" transform="rotate(90,239.5,203.5)"/><rect x="235" y="217" width="9" height="9" transform="rotate(0,239.5,221.5)"/><circle cx="239.5" cy="239.5" r="4.5" transform="rotate(0,239.5,239.5)"/><rect x="235" y="253" width="9" height="9" transform="rotate(0,239.5,257.5)"/><path d="M 235 262v 9h 9v -4.5a 4.5 4.5, 0, 0, 0, -4.5 -4.5" transform="rotate(90,239.5,266.5)"/><rect x="235" y="280" width="9" height="9" transform="rotate(0,239.5,284.5)"/><rect x="244" y="73" width="9" height="9" transform="rotate(0,248.5,77.5)"/><path d="M 244 82v 9h 4.5a 4.5 4.5, 0, 0, 0, 0 -9" transform="rotate(90,248.5,86.5)"/><circle cx="248.5" cy="140.5" r="4.5" transform="rotate(0,248.5,140.5)"/><path d="M 244 154v 9h 9v -4.5a 4.5 4.5, 0, 0, 0, -4.5 -4.5" transform="rotate(-90,248.5,158.5)"/><rect x="244" y="163" width="9" height="9" transform="rotate(0,248.5,167.5)"/><rect x="244" y="172" width="9" height="9" transform="rotate(0,248.5,176.5)"/><rect x="244" y="181" width="9" height="9" transform="rotate(0,248.5,185.5)"/><path d="M 244 190v 9h 9v -4.5a 4.5 4.5, 0, 0, 0, -4.5 -4.5" transform="rotate(90,248.5,194.5)"/><rect x="244" y="217" width="9" height="9" transform="rotate(0,248.5,221.5)"/><rect x="244" y="253" width="9" height="9" transform="rotate(0,248.5,257.5)"/><path d="M 244 280v 9h 9v -4.5a 4.5 4.5, 0, 0, 0, -4.5 -4.5" transform="rotate(0,248.5,284.5)"/><path d="M 244 289v 9h 4.5a 4.5 4.5, 0, 0, 0, 0 -9" transform="rotate(90,248.5,293.5)"/><path d="M 253 73v 9h 4.5a 4.5 4.5, 0, 0, 0, 0 -9" transform="rotate(0,257.5,77.5)"/><path d="M 253 118v 9h 9v -4.5a 4.5 4.5, 0, 0, 0, -4.5 -4.5" transform="rotate(-90,257.5,122.5)"/><path d="M 253 127v 9h 9v -4.5a 4.5 4.5, 0, 0, 0, -4.5 -4.5" transform="rotate(180,257.5,131.5)"/><rect x="253" y="154" width="9" height="9" transform="rotate(0,257.5,158.5)"/><rect x="253" y="163" width="9" height="9" transform="rotate(0,257.5,167.5)"/><rect x="253" y="172" width="9" height="9" transform="rotate(0,257.5,176.5)"/><rect x="253" y="181" width="9" height="9" transform="rotate(0,257.5,185.5)"/><path d="M 253 217v 9h 9v -4.5a 4.5 4.5, 0, 0, 0, -4.5 -4.5" transform="rotate(0,257.5,221.5)"/><rect x="253" y="226" width="9" height="9" transform="rotate(0,257.5,230.5)"/><rect x="253" y="235" width="9" height="9" transform="rotate(0,257.5,239.5)"/><rect x="253" y="244" width="9" height="9" transform="rotate(0,257.5,248.5)"/><rect x="253" y="253" width="9" height="9" transform="rotate(0,257.5,257.5)"/><path d="M 253 262v 9h 4.5a 4.5 4.5, 0, 0, 0, 0 -9" transform="rotate(90,257.5,266.5)"/><path d="M 262 100v 9h 4.5a 4.5 4.5, 0, 0, 0, 0 -9" transform="rotate(180,266.5,104.5)"/><path d="M 262 118v 9h 9v -4.5a 4.5 4.5, 0, 0, 0, -4.5 -4.5" transform="rotate(0,266.5,122.5)"/><path d="M 262 127v 9h 9v -4.5a 4.5 4.5, 0, 0, 0, -4.5 -4.5" transform="rotate(90,266.5,131.5)"/><path d="M 262 145v 9h 9v -4.5a 4.5 4.5, 0, 0, 0, -4.5 -4.5" transform="rotate(-90,266.5,149.5)"/><rect x="262" y="154" width="9" height="9" transform="rotate(0,266.5,158.5)"/><rect x="262" y="181" width="9" height="9" transform="rotate(0,266.5,185.5)"/><rect x="262" y="190" width="9" height="9" transform="rotate(0,266.5,194.5)"/><path d="M 262 199v 9h 4.5a 4.5 4.5, 0, 0, 0, 0 -9" transform="rotate(90,266.5,203.5)"/><rect x="262" y="235" width="9" height="9" transform="rotate(0,266.5,239.5)"/><rect x="262" y="244" width="9" height="9" transform="rotate(0,266.5,248.5)"/><rect x="262" y="253" width="9" height="9" transform="rotate(0,266.5,257.5)"/><circle cx="266.5" cy="275.5" r="4.5" transform="rotate(0,266.5,275.5)"/><circle cx="266.5" cy="293.5" r="4.5" transform="rotate(0,266.5,293.5)"/><path d="M 271 91v 9h 4.5a 4.5 4.5, 0, 0, 0, 0 -9" transform="rotate(-90,275.5,95.5)"/><rect x="271" y="100" width="9" height="9" transform="rotate(0,275.5,104.5)"/><path d="M 271 145v 9h 9v -4.5a 4.5 4.5, 0, 0, 0, -4.5 -4.5" transform="rotate(0,275.5,149.5)"/><path d="M 271 154v 9h 9v -4.5a 4.5 4.5, 0, 0, 0, -4.5 -4.5" transform="rotate(90,275.5,158.5)"/><path d="M 271 172v 9h 9v -4.5a 4.5 4.5, 0, 0, 0, -4.5 -4.5" transform="rotate(-90,275.5,176.5)"/><path d="M 271 181v 9h 9v -4.5a 4.5 4.5, 0, 0, 0, -4.5 -4.5" transform="rotate(90,275.5,185.5)"/><path d="M 271 217v 9h 9v -4.5a 4.5 4.5, 0, 0, 0, -4.5 -4.5" transform="rotate(-90,275.5,221.5)"/><rect x="271" y="226" width="9" height="9" transform="rotate(0,275.5,230.5)"/><path d="M 271 235v 9h 9v -4.5a 4.5 4.5, 0, 0, 0, -4.5 -4.5" transform="rotate(90,275.5,239.5)"/><rect x="271" y="253" width="9" height="9" transform="rotate(0,275.5,257.5)"/><circle cx="284.5" cy="86.5" r="4.5" transform="rotate(0,284.5,86.5)"/><path d="M 280 100v 9h 9v -4.5a 4.5 4.5, 0, 0, 0, -4.5 -4.5" transform="rotate(0,284.5,104.5)"/><rect x="280" y="109" width="9" height="9" transform="rotate(0,284.5,113.5)"/><rect x="280" y="118" width="9" height="9" transform="rotate(0,284.5,122.5)"/><path d="M 280 127v 9h 9v -4.5a 4.5 4.5, 0, 0, 0, -4.5 -4.5" transform="rotate(180,284.5,131.5)"/><path d="M 280 163v 9h 4.5a 4.5 4.5, 0, 0, 0, 0 -9" transform="rotate(-90,284.5,167.5)"/><rect x="280" y="172" width="9" height="9" transform="rotate(0,284.5,176.5)"/><path d="M 280 199v 9h 9v -4.5a 4.5 4.5, 0, 0, 0, -4.5 -4.5" transform="rotate(-90,284.5,203.5)"/><rect x="280" y="208" width="9" height="9" transform="rotate(0,284.5,212.5)"/><rect x="280" y="217" width="9" height="9" transform="rotate(0,284.5,221.5)"/><path d="M 280 244v 9h 9v -4.5a 4.5 4.5, 0, 0, 0, -4.5 -4.5" transform="rotate(-90,284.5,248.5)"/><rect x="280" y="253" width="9" height="9" transform="rotate(0,284.5,257.5)"/><path d="M 280 262v 9h 9v -4.5a 4.5 4.5, 0, 0, 0, -4.5 -4.5" transform="rotate(180,284.5,266.5)"/><circle cx="293.5" cy="95.5" r="4.5" transform="rotate(0,293.5,95.5)"/><path d="M 289 109v 9h 4.5a 4.5 4.5, 0, 0, 0, 0 -9" transform="rotate(0,293.5,113.5)"/><path d="M 289 127v 9h 9v -4.5a 4.5 4.5, 0, 0, 0, -4.5 -4.5" transform="rotate(0,293.5,131.5)"/><path d="M 289 136v 9h 4.5a 4.5 4.5, 0, 0, 0, 0 -9" transform="rotate(90,293.5,140.5)"/><path d="M 289 172v 9h 9v -4.5a 4.5 4.5, 0, 0, 0, -4.5 -4.5" transform="rotate(0,293.5,176.5)"/><path d="M 289 181v 9h 4.5a 4.5 4.5, 0, 0, 0, 0 -9" transform="rotate(90,293.5,185.5)"/><path d="M 289 199v 9h 4.5a 4.5 4.5, 0, 0, 0, 0 -9" transform="rotate(0,293.5,203.5)"/><path d="M 289 217v 9h 9v -4.5a 4.5 4.5, 0, 0, 0, -4.5 -4.5" transform="rotate(0,293.5,221.5)"/><path d="M 289 226v 9h 4.5a 4.5 4.5, 0, 0, 0, 0 -9" transform="rotate(90,293.5,230.5)"/><path d="M 289 244v 9h 4.5a 4.5 4.5, 0, 0, 0, 0 -9" transform="rotate(0,293.5,248.5)"/><path d="M 289 262v 9h 9v -4.5a 4.5 4.5, 0, 0, 0, -4.5 -4.5" transform="rotate(0,293.5,266.5)"/><path d="M 289 271v 9h 4.5a 4.5 4.5, 0, 0, 0, 0 -9" transform="rotate(90,293.5,275.5)"/><circle cx="293.5" cy="293.5" r="4.5" transform="rotate(0,293.5,293.5)"/></g><g class="corners-square-color-0-0"><path clip-rule="evenodd" d="M 1 10v 45a 9 9, 0, 0, 0, 9 9h 45a 9 9, 0, 0, 0, 9 -9v -45a 9 9, 0, 0, 0, -9 -9h -45a 9 9, 0, 0, 0, -9 9zM 14.5 10h 36a 4.5 4.5, 0, 0, 1, 4.5 4.5v 36a 4.5 4.5, 0, 0, 1, -4.5 4.5h -36a 4.5 4.5, 0, 0, 1, -4.5 -4.5v -36a 4.5 4.5, 0, 0, 1, 4.5 -4.5z" transform="rotate(0,32.5,32.5)"/></g><g class="corners-dot-color-0-0"><rect x="19" y="19" width="27" height="27" rx="6.75" ry="6.75" transform="rotate(0,32.5,32.5)"/></g><g class="corners-square-color-1-0"><path clip-rule="evenodd" d="M 235 10v 45a 9 9, 0, 0, 0, 9 9h 45a 9 9, 0, 0, 0, 9 -9v -45a 9 9, 0, 0, 0, -9 -9h -45a 9 9, 0, 0, 0, -9 9zM 248.5 10h 36a 4.5 4.5, 0, 0, 1, 4.5 4.5v 36a 4.5 4.5, 0, 0, 1, -4.5 4.5h -36a 4.5 4.5, 0, 0, 1, -4.5 -4.5v -36a 4.5 4.5, 0, 0, 1, 4.5 -4.5z" transform="rotate(90,266.5,32.5)"/></g><g class="corners-dot-color-1-0"><rect x="253" y="19" width="27" height="27" rx="6.75" ry="6.75" transform="rotate(90,266.5,32.5)"/></g><g class="corners-square-color-0-1"><path clip-rule="evenodd" d="M 1 244v 45a 9 9, 0, 0, 0, 9 9h 45a 9 9, 0, 0, 0, 9 -9v -45a 9 9, 0, 0, 0, -9 -9h -45a 9 9, 0, 0, 0, -9 9zM 14.5 244h 36a 4.5 4.5, 0, 0, 1, 4.5 4.5v 36a 4.5 4.5, 0, 0, 1, -4.5 4.5h -36a 4.5 4.5, 0, 0, 1, -4.5 -4.5v -36a 4.5 4.5, 0, 0, 1, 4.5 -4.5z" transform="rotate(-90,32.5,266.5)"/></g><g class="corners-dot-color-0-1"><rect x="19" y="253" width="27" height="27" rx="6.75" ry="6.75" transform="rotate(-90,32.5,266.5)"/></g></svg></g></svg></svg>