<?xml version="1.0" encoding="utf-8"?>
<!-- Generator: Adobe Illustrator 25.4.1, SVG Export Plug-In . SVG Version: 6.00 Build 0)  -->
<svg version="1.1" id="Layer_1" xmlns="http://www.w3.org/2000/svg" xmlns:xlink="http://www.w3.org/1999/xlink" x="0px" y="0px"
	 viewBox="0 0 1651.8 431.3" style="enable-background:new 0 0 1651.8 431.3;" xml:space="preserve">
<style type="text/css">
	.st0{fill:#00913C;}
	.st1{fill:#FEF800;}
	.st2{fill:none;}
	.st3{fill:#E57840;}
	.st4{fill:#83C428;}
	.st5{fill:#9FBB73;}
</style>
<path class="st0" d="M103,0C46.1,0,0,96.6,0,215.7s46.1,215.7,103,215.7s103-96.5,103-215.7S159.9,0,103,0z M103,394.5
	c-52.5,0-95.1-80.1-95.1-178.9S50.5,36.8,103,36.8s95.1,80.1,95.1,178.9S155.5,394.5,103,394.5z"/>
<path class="st1" d="M103,36.8c-52.5,0-95.1,80.1-95.1,178.9S50.5,394.5,103,394.5s95.1-80.1,95.1-178.9S155.5,36.8,103,36.8z
	 M103,379.8c-48.5,0-87.8-73.5-87.8-164.1S54.5,51.5,103,51.5s87.8,73.4,87.8,164.1S151.5,379.8,103,379.8L103,379.8z"/>
<path class="st0" d="M499.6,237.8c-9.1,9-15.5,13.4-18.7,13.4c-1.4,0-2.6-1.1-2.6-2.5c0,0,0-0.1,0-0.1c0-3,3.5-8.1,9.8-16.1
	c2.6-3.4,4-5.3,4-6.5c0-2.3-3.8-6.4-5.9-6.4c-3.4,0-15,8.4-32.1,26.9l0.6-6.1c31.3-35.5,44.7-56.8,44.7-60.1c0-1.3-2.5-3.5-4.9-3.5
	c-2.2,0-15,10.5-31.3,33c-9,12.2-14.2,21.1-16.1,26.3c-0.4,1.1-0.7,2.2-0.9,3.4c-7.1,6.6-11.9,10.1-15.6,10.1c-2.2,0-3.5-1-3.5-3
	c0-6.8,9.5-15.3,9.5-18.9c-0.1-0.8-0.4-1.6-0.8-2.3l-2-4.4l2.2-1.3c1.6-0.9,2.2-1.3,2.2-2.2c0-2.2-3-6.4-5.9-6.4
	c-1,0-5.9,0.8-13,3.5c-7.2,2.6-14,6.5-19.9,11.4c-5.5,4.7-9.3,9.4-11,13.5c-3.6,3.3-6.5,5.2-8.9,5.2c-1.6,0-2.5-0.6-3.8-1.8
	c5.9-7.8,8.3-14.7,8.3-19.1c0-2.7-1.3-4.4-2.9-4.4c-2.2,0-6.2,3.2-11,9.9c-3,4.2-4.4,7.9-4.4,10.1c0,0.6,0,1.2,0.1,1.8
	c-5.5,7.3-8.5,11.2-10.7,11.2c-1.3,0-1.6-0.6-1.6-2.1c0-3,2-9.6,7-19.4c2.9-5.5,5.2-8.7,5.2-10.4c0-1.2-2.3-2-5.3-2
	c-1.7,0-3.2,3.1-9.5,10.1c-12.5,14.4-20.1,21.7-23,21.7c-0.8,0-1.2-0.9-1.2-2.6c0.1-2.4,0.6-4.7,1.3-7c13.3-11.7,19.2-20,19.2-22.8
	c0-2-3.5-3.6-7.3-3.6c-3.5,0-6.8,3.2-11.7,8.8c-5.8,6.4-9.3,12.1-10.3,18.1c-7.8,6.8-12.3,10.9-15,10.9c-1.3,0-2.5-1.6-2.5-3
	c0-5.9,3.4-19.2,9.1-27.4c11.2-16,18.1-25.5,18.1-30.4c0-3.2-2.5-5.6-4.4-5.6c-2.5,0-9.9,10.9-22.8,33c-1.1-1.8-3.2-2.9-5.3-2.7
	c-4.2,0-12,2.9-21.1,9.4c-7.3,5.2-10.9,10.2-11.2,15.8c-7.4,6.5-12,10.2-14.6,10.2c-1.6,0-2.9-1.2-3-2.8c0,0,0,0,0,0
	c0-3,3.8-11.6,13.1-22.2c2-2.3,2.6-2.9,2.6-6.6c0-3.5-0.9-5.2-2.3-5.2c-2.9,0-8.2,5.7-17.2,15.3c-12.1,12.9-20.7,19-23,19
	c-0.4,0-0.5-0.5-0.5-1.4c0-1.8,0.8-4.3,2.3-7.5c10.5-10.2,16.3-15.9,16.3-18.9c0-1.4-2.9-2.6-6.8-2.6s-6.2,2-10.1,6.2
	c-7.3,8.1-11.1,14.4-11.1,22.5c0,9.4,5.7,14.8,9.4,14.8s9.5-5.6,18.2-16.8c-2.3,5.3-3.2,9.4-3.2,12c0,4.7,3,7.8,7.4,7.8
	c5.6,0,12.4-6.1,22.7-17.5c1.2,8.8,4.9,14.1,7.3,14.1c2.6,0,9.5-6,21.1-18.1c-0.7,3.7-1,7.5-1,11.3c0,6.6,1.3,9.8,5.7,9.8
	c5.8,0,11.8-6,21.5-16.7c1,7.5,5.9,13.3,10.1,13.3c2.5,0,8.7-5.3,18.3-16c-0.9,3.1-1.3,6.3-1.4,9.5c0,5.2,2.3,8.4,5.6,8.4
	c4,0,10.8-4.7,18.9-14.3c2.7,2.3,4.8,3.6,6.9,3.6c3,0,7-2.1,11.2-6.3c1,7.5,7.2,15.6,9.7,15.6c3.5,0,10.5-5.7,21.3-17
	c-1.7,5.5-3,9.2-3,12.2c0,4.4,3.1,7.4,6.8,7.4c5.5,0,12.4-6.8,23.3-18.5c0,0.4,0,0.8,0,1.2v3c0,7.4,0.6,11.4,4,11.4
	c4.7,0,10.7-12.7,27.8-27.9c-6.9,10.4-10.9,17.6-10.9,22.6s2.5,7.9,6,7.9c6.1,0,15.1-7.1,27.3-21.1L499.6,237.8z M290.4,237
	c-9.6,8.7-15.3,13.3-17.7,13.3c-0.8,0-0.9-0.6-0.9-1.9c0-10,8.5-15.3,25.6-21.7C295.4,232.8,292.7,234.9,290.4,237z M399,250.6
	c-1.2,0-2.1-1.3-2.1-3.2c0-9.8,10.9-15.2,31.5-23.9C414,242.1,402,250.6,399,250.6z"/>
<path class="st2" d="M174,112.6c-1-0.6-8,8-16.5,21.8c1.3,2.6,2.5,5.3,3.7,8.1C169.2,125.6,175.1,113.2,174,112.6z"/>
<path class="st3" d="M169.8,169c-21,35.3-49,84.6-49.8,97.3c0,0-10.6-30.1-9.2-52.8c1.4-23.1,8.1-46,9.2-45.6l3.1,2.1l-2.6-5.2
	c4.4-14.1,14.9-34.4,24.7-47.2l3.8,3.1l-0.6-1.9c-12.4-17.6-28.1-28.1-45.3-28.1c-39.9,0-72.3,56.9-72.3,127.1S63.1,345,103,345
	s72.3-56.9,72.3-127.1C175.3,201.4,173.5,185,169.8,169z"/>
<path class="st4" d="M53,262.5c-3.4,0-12.2-12-12.2-21.8c0-6.1,5.3-14.2,14.9-22.4c7.3-6,15.6-10.7,24.5-13.9
	c8.8-3.4,14.7-4.3,16-4.3c3.5,0,7.2,5.1,7.2,7.8c0,1.1-0.8,1.6-2.7,2.7l-2.7,1.6l2.6,5.4c0.5,0.9,0.8,1.9,1,2.9
	c0,4.3-11.7,14.9-11.7,23.2c0,2.4,1.6,3.7,4.3,3.7c5,0,11.5-5.3,21.8-14.9l0.2,6.6c-15.5,16.8-24.8,26.6-32.2,26.6
	c-4.5,0-8.3-3.7-8.3-9.1c0-3.7,1.6-8.3,3.7-15C66,255.5,57.3,262.5,53,262.5z M52.7,244.7c0,2.4,1.1,4,2.6,4
	c3.7,0,18.4-10.6,36.2-33.4C66.1,226,52.7,232.7,52.7,244.7z"/>
<image style="overflow:visible;opacity:0.5;enable-background:new    ;" width="150" height="246" xlink:href="B8A67AC7.png"  transform="matrix(1 0 0 1 93.39 35.98)">
</image>
<path class="st0" d="M230.3,55.9c-0.3-7.8-9.9-2.7-9.9-2.7l-34.7,25.5l-3.4,8.8v-6.8c-13.1,11.1-35.4,34-35.4,34l1.4,4l0.6,1.9
	l-3.8-3.1c-9.8,12.9-20.3,33.1-24.7,47.2l2.6,5.2l-3.1-2c-1.1-0.4-7.8,22.5-9.2,45.6c-1.4,22.7,9.2,52.8,9.2,52.8
	c0.7-12.7,28.8-62,49.8-97.3c12.7-21.3,22.8-37.5,22.8-37.5l-1.4-7.8l2.2,3.3C193.3,126.9,230.6,63.7,230.3,55.9z M161.2,142.6
	c-5.1,10.7-10.9,23.3-16.5,35.9c-13.2,29.9-24.9,66-24.9,58.8c0-3.3,6.9-38.8,19.3-67.5c5.3-12.2,11.4-24,18.4-35.4
	C166,120.6,173,112,174,112.6S169.2,125.6,161.2,142.6z"/>
<path class="st0" d="M502.8,320.5H132.4c0,0-21.1-1.7-15.3-28.9c5.2-24.4,33.7-25.3,39.5-25.2c0.6,0,1,0.4,1,1c0,0,0,0,0,0.1
	l-1.5,26h346.7c1.1,0,2,0.9,2,2v23.1C504.8,319.5,503.9,320.4,502.8,320.5C502.8,320.5,502.8,320.5,502.8,320.5z"/>
<path class="st5" d="M605.7,179.1c-6.8,0-13.7-1-20.2-3c-2.9-0.9-5.8-2.1-8.5-3.6c-1.6-0.8-2.9-2.1-3.7-3.8c-0.7-1.5-1-3.1-0.8-4.7
	c0.2-1.6,0.8-3,1.8-4.3c1-1.2,2.3-2.1,3.8-2.4c1.8-0.3,3.6,0,5.2,0.9c3.4,1.9,7,3.2,10.7,4.1c3.8,0.9,7.7,1.3,11.6,1.3
	c5.8,0,10-0.9,12.5-2.7c2.3-1.5,3.7-4,3.7-6.8c0.1-2.2-0.9-4.2-2.6-5.5c-1.8-1.3-4.8-2.5-9.2-3.5l-13.6-2.9
	c-7.7-1.6-13.4-4.3-17.1-8.2s-5.6-9-5.6-15.3c0-3.8,0.8-7.5,2.5-10.9c1.7-3.3,4.1-6.2,7.1-8.5c3.2-2.5,6.9-4.4,10.9-5.5
	c4.5-1.3,9.2-2,13.9-1.9c4.4,0,8.9,0.5,13.2,1.6c4,1,7.9,2.6,11.4,4.7c1.5,0.8,2.6,2.1,3.3,3.7c0.6,1.4,0.8,2.9,0.6,4.4
	c-0.2,1.5-0.8,2.8-1.8,3.9c-1,1.1-2.3,1.9-3.8,2.2c-1.9,0.3-3.8-0.1-5.5-1.1c-2.7-1.4-5.5-2.4-8.4-3c-3-0.7-6.1-1-9.1-1
	c-2.9-0.1-5.8,0.4-8.6,1.3c-2.1,0.7-4,2-5.4,3.7c-1.2,1.6-1.9,3.5-1.9,5.5c-0.1,2.2,0.9,4.2,2.5,5.6c1.7,1.4,4.6,2.6,8.8,3.5l13.6,3
	c7.8,1.7,13.7,4.4,17.5,8.1s5.8,8.6,5.8,14.7c0.1,3.8-0.8,7.5-2.4,10.9c-1.6,3.3-4,6.1-7,8.3c-3.3,2.4-7,4.2-10.9,5.3
	C615.3,178.6,610.5,179.2,605.7,179.1z"/>
<path class="st5" d="M662.1,177.8c-3.1,0-5.5-0.8-7.2-2.5c-1.7-1.7-2.5-4.1-2.5-7.2V103c0-3.1,0.8-5.5,2.5-7.2
	c1.7-1.7,4.1-2.5,7.2-2.5h23.4c14.5,0,25.7,3.7,33.5,11c7.9,7.3,11.8,17.8,11.8,31.3c0.1,6.2-0.9,12.3-3.1,18.1
	c-1.9,5-4.9,9.5-8.8,13.2c-4.1,3.7-8.9,6.5-14.2,8.2c-6.2,2-12.8,2.9-19.3,2.8L662.1,177.8z M671,162.6h13.4c4,0.1,8-0.5,11.9-1.7
	c6.5-2,11.5-7,13.4-13.5c1.2-3.9,1.8-7.9,1.7-11.9c0-9.1-2.3-15.9-6.8-20.3s-11.3-6.7-20.2-6.7H671V162.6z"/>
<path class="st5" d="M754.6,178.9c-3,0-5.4-0.8-7-2.5c-1.7-2-2.6-4.5-2.4-7.1v-67.6c-0.2-2.6,0.7-5.1,2.4-7.1c1.6-1.7,3.9-2.5,7-2.5
	c2.5-0.2,5,0.8,6.8,2.5c1.7,2,2.6,4.5,2.4,7.1v67.6c0,3-0.8,5.4-2.3,7.1C760,178.1,757.7,178.9,754.6,178.9z"/>
<path class="st5" d="M810.4,178.9c-3,0-5.4-0.8-7-2.5c-1.7-2-2.6-4.5-2.4-7.1v-60.7h-21.2c-2.1,0.1-4.2-0.6-5.8-2
	c-2.7-3.3-2.7-8,0-11.3c1.6-1.4,3.7-2.1,5.8-2h61.1c2.1-0.1,4.2,0.6,5.8,2c2.7,3.3,2.7,8,0,11.3c-1.6,1.4-3.6,2.1-5.8,2h-21.2v60.7
	c0,3-0.8,5.4-2.3,7.1C815.8,178.1,813.5,178.9,810.4,178.9z"/>
<path class="st5" d="M892.6,178.9c-1.9,0.1-3.9-0.5-5.5-1.6c-1.4-1-2.3-2.5-2.6-4.2c-0.3-2,0-4.1,1-5.9l30.7-67.3
	c1-2.4,2.5-4.4,4.6-6c3.7-2.5,8.5-2.5,12.2,0c2,1.5,3.5,3.6,4.4,5.9l31,67.3c1,1.8,1.4,3.9,1.1,5.9c-0.2,1.7-1.1,3.2-2.5,4.2
	c-1.6,1.1-3.4,1.6-5.3,1.5c-2.3,0.1-4.5-0.5-6.3-1.9c-1.7-1.7-3.1-3.7-3.9-6l-7.2-16.7l7.4,5.2h-50l7.4-5.2l-7.2,16.7
	c-0.8,2.2-2.1,4.3-3.8,6.1C896.8,178.4,894.7,179.1,892.6,178.9z M926.7,113l-15.4,36.6l-3.2-4.6h37.6l-3.2,4.7L926.9,113H926.7z"/>
<path class="st5" d="M990,177.8c-3,0-5.4-0.8-7-2.5c-1.7-1.9-2.6-4.4-2.5-7v-65.8c0-3.1,0.8-5.5,2.4-7.1s3.9-2.4,7-2.4
	c3,0,5.2,0.8,6.8,2.4c1.6,1.6,2.4,4,2.4,7.1v59.6h32.2c2.2-0.1,4.3,0.6,5.9,2c1.5,1.5,2.2,3.6,2.1,5.8c0.1,2.2-0.6,4.3-2.1,5.9
	c-1.6,1.4-3.8,2.1-5.9,2L990,177.8z"/>
<path class="st5" d="M1122.1,179.1c-7.7,0.2-15.2-1.7-21.9-5.5c-6.2-3.6-11.3-8.9-14.6-15.3c-3.5-6.6-5.2-14.2-5.2-22.9
	c-0.1-6.1,0.9-12.2,2.9-17.9c1.8-5.1,4.7-9.8,8.5-13.7c3.8-3.9,8.3-6.9,13.3-8.8c5.4-2.1,11.3-3.2,17.1-3.1c8.5,0,15.8,1.8,22.1,5.4
	c6.2,3.6,11.3,8.8,14.6,15.2c3.5,6.5,5.2,14.1,5.2,22.9c0.1,6.1-0.9,12.2-3,18c-1.9,5.1-4.8,9.8-8.5,13.8c-3.7,3.9-8.2,6.9-13.2,8.9
	C1133.8,178.2,1127.9,179.2,1122.1,179.1z M1122.1,163.3c4.3,0.1,8.5-1,12.1-3.3c3.5-2.4,6.1-5.7,7.7-9.6c1.9-4.7,2.8-9.8,2.7-14.9
	c0-8.8-2-15.6-5.9-20.5c-3.9-4.8-9.4-7.3-16.6-7.3c-4.2-0.1-8.4,1-12,3.2c-3.5,2.3-6.2,5.6-7.7,9.5c-1.9,4.8-2.8,9.9-2.6,15
	c0,8.7,2,15.5,5.9,20.5C1109.5,160.8,1115,163.3,1122.1,163.3z M1156.4,190c1.2,1.7,1.7,3.7,1.4,5.7c-0.3,1.7-1.1,3.2-2.4,4.3
	c-1.3,1.2-2.9,1.9-4.6,2.2c-1.8,0.3-3.7,0.1-5.4-0.5c-1.9-0.8-3.5-2.1-4.6-3.9l-8.5-13.9c-1-1.5-2.4-2.8-4-3.5
	c-2-0.8-4.1-1.2-6.3-1.1l14.2-5.4c3.1-0.1,6.2,0.5,9.1,1.9c2.7,1.6,4.9,3.9,6.4,6.6L1156.4,190z"/>
<path class="st5" d="M1214.6,179.1c-5.4,0.1-10.8-0.7-15.9-2.3c-4.3-1.4-8.3-3.8-11.6-6.9c-3.2-3.2-5.6-7.1-7-11.5
	c-1.6-5.2-2.4-10.6-2.3-16v-40.8c0-3.1,0.8-5.5,2.4-7.1c1.6-1.6,3.9-2.4,7-2.4c3,0,5.2,0.8,6.8,2.4s2.4,4,2.4,7.1v40.9
	c0,6.9,1.6,12.1,4.7,15.5s7.6,5.2,13.6,5.2s10.4-1.7,13.5-5.2s4.6-8.7,4.6-15.5v-40.9c0-3.1,0.8-5.5,2.4-7.1
	c1.6-1.6,3.9-2.4,6.8-2.4s5.2,0.8,6.8,2.4c1.6,1.6,2.3,4,2.3,7.1v40.8c0,8.1-1.4,14.9-4.1,20.3c-2.6,5.3-6.9,9.7-12.2,12.3
	C1229.3,177.8,1222.6,179.1,1214.6,179.1z"/>
<path class="st5" d="M1277.2,177.8c-3.1,0-5.5-0.8-7.2-2.5s-2.5-4.1-2.5-7.2V103c0-3.1,0.8-5.5,2.5-7.2s4.1-2.5,7.2-2.5h23.4
	c14.5,0,25.7,3.7,33.5,11c7.9,7.3,11.8,17.7,11.8,31.2c0.1,6.2-0.9,12.3-3.1,18.1c-1.9,5-4.9,9.6-8.8,13.3
	c-4.1,3.7-8.9,6.5-14.2,8.2c-6.2,2-12.8,2.9-19.3,2.8H1277.2z M1286.1,162.6h13.4c4,0.1,8-0.5,11.9-1.7c6.5-2,11.5-7,13.4-13.5
	c1.2-3.9,1.8-7.9,1.7-11.9c0-9.1-2.3-15.9-6.8-20.3s-11.3-6.7-20.2-6.7h-13.4V162.6z"/>
<path class="st5" d="M1389.4,178.9c-2.2,0.1-4.4-0.6-6.2-1.9c-1.8-1.5-3.1-3.5-3.8-5.7l-24.2-68.2c-1-3-0.8-5.6,0.7-7.8
	c1.5-2.2,4.1-3.2,7.7-3.2c2.1-0.1,4.2,0.5,5.9,1.8c1.6,1.5,2.8,3.5,3.4,5.6l19.8,58.9h-5.2l20.9-58.8c0.7-2.2,1.9-4.1,3.5-5.7
	c1.6-1.3,3.6-2,5.6-1.9c2-0.1,3.9,0.6,5.4,1.9c1.6,1.6,2.8,3.6,3.5,5.8l19.9,58.7h-4.4l20.1-58.9c0.6-2.1,1.7-4.1,3.4-5.6
	c1.7-1.3,3.8-2,5.9-1.9c3.1,0,5.4,1.1,6.8,3.2c1.4,2.2,1.6,4.8,0.5,7.8l-24.5,68.3c-0.7,2.2-1.9,4.1-3.6,5.6c-1.8,1.3-4,2-6.2,1.9
	c-2.2,0.1-4.4-0.5-6.1-1.9c-1.7-1.5-3-3.5-3.7-5.7l-19-53.6h2.9l-19.2,53.8c-0.7,2.1-2,4.1-3.7,5.6
	C1393.7,178.4,1391.6,179,1389.4,178.9z"/>
<path class="st5" d="M1487.3,178.9c-1.9,0.1-3.9-0.5-5.5-1.6c-1.4-1-2.3-2.5-2.6-4.2c-0.3-2,0-4.1,1-5.9L1511,100
	c1-2.3,2.6-4.4,4.6-5.9c3.7-2.5,8.5-2.5,12.2,0c2,1.5,3.5,3.6,4.4,5.9l31,67.3c1,1.8,1.4,3.9,1.1,5.9c-0.2,1.7-1.1,3.2-2.5,4.2
	c-1.6,1.1-3.4,1.6-5.3,1.5c-2.3,0.1-4.5-0.5-6.3-1.9c-1.7-1.7-3.1-3.7-3.9-6l-7.2-16.7l7.4,5.2h-50l7.4-5.2l-7.2,16.6
	c-0.8,2.2-2.1,4.3-3.8,6.1C1491.5,178.4,1489.4,179.1,1487.3,178.9z M1521.4,113l-15.4,36.6l-3.2-4.7h37.6l-3.2,4.7l-15.5-36.6
	H1521.4z"/>
<path class="st5" d="M1584.7,178.9c-3,0-5.4-0.8-7-2.5c-1.7-2-2.6-4.5-2.4-7.1v-67.6c-0.2-2.6,0.7-5.1,2.4-7.1
	c1.6-1.7,3.9-2.5,7-2.5c2.5-0.2,5,0.8,6.8,2.5c1.7,2,2.6,4.5,2.4,7.1v25.4h39.4v-25.4c-0.2-2.6,0.7-5.1,2.4-7.1
	c1.8-1.8,4.3-2.7,6.8-2.5c3,0,5.4,0.8,7,2.5c1.7,2,2.6,4.5,2.4,7.1v67.6c0.2,2.6-0.7,5.1-2.4,7.1c-1.6,1.7-3.9,2.5-7,2.5
	c-2.5,0.2-5-0.8-6.8-2.5c-1.7-2-2.6-4.5-2.4-7.1v-26.6h-39.4v26.6c0,3-0.8,5.4-2.3,7.1C1590,178.1,1587.7,178.9,1584.7,178.9z"/>
<path d="M591.1,322.9c-2.4,0.2-4.7-0.7-6.4-2.3c-1.6-1.8-2.4-4.2-2.2-6.7v-68.4c0-3,0.7-5.4,2.2-7c1.5-1.6,3.7-2.5,5.9-2.4
	c1.8-0.1,3.5,0.3,5,1.3c1.5,1.2,2.9,2.6,4,4.1l42.1,53.6h-3.2V245c-0.1-2.4,0.7-4.7,2.2-6.5c3.7-3.1,9.1-3.1,12.8,0
	c1.6,1.8,2.4,4.2,2.2,6.5v69.2c0.1,2.3-0.6,4.5-2,6.3c-1.4,1.6-3.4,2.4-5.5,2.3c-1.9,0.1-3.7-0.4-5.3-1.3c-1.6-1.2-3.1-2.6-4.3-4.2
	l-42-53.6h3.1v50.2c0.2,2.4-0.6,4.8-2.2,6.7C596.2,322.1,594,322.9,591.1,322.9z"/>
<path d="M762.6,323.1c-9.5,0-17.6-1.8-24.2-5.4c-6.4-3.4-11.7-8.7-15.1-15.1c-3.4-6.5-5.2-14.1-5.2-22.8c-0.1-6.2,0.9-12.4,3.1-18.2
	c1.9-5.2,4.9-9.9,8.9-13.8c4-3.9,8.9-6.9,14.2-8.9c6.1-2.2,12.5-3.2,18.9-3.1c4.4,0,8.7,0.5,13,1.4c4.4,1,8.6,2.6,12.5,4.8
	c1.5,0.8,2.7,2.1,3.4,3.7c0.6,1.5,0.8,3.1,0.5,4.7c-0.3,1.6-0.9,3.1-1.9,4.3c-1,1.2-2.3,2.1-3.8,2.4c-1.8,0.3-3.7,0-5.3-0.9
	c-2.6-1.4-5.5-2.5-8.4-3.2c-3.2-0.7-6.5-1-9.7-1c-5.7,0-10.4,1.1-14.3,3.2c-3.8,2.1-6.8,5.4-8.6,9.4c-2,4.8-3,10-2.8,15.2
	c0,9,2.2,15.9,6.5,20.5c4.4,4.6,10.8,7,19.4,7c3,0,6-0.3,8.9-0.8c3.1-0.6,6.1-1.4,9-2.4l-3.5,7.5v-23h-10.8c-2,0.1-4-0.5-5.5-1.8
	c-2.6-2.8-2.6-7.1,0-9.9c1.6-1.2,3.5-1.9,5.5-1.7H786c2-0.1,4,0.6,5.5,1.9c1.3,1.5,2,3.5,1.9,5.5v27.8c0.1,1.8-0.4,3.7-1.2,5.3
	c-0.9,1.5-2.4,2.6-4.1,3.1C779.8,321.7,771.3,323.1,762.6,323.1L762.6,323.1z"/>
<path d="M860,322.9c-1.9,0.1-3.9-0.5-5.5-1.6c-1.4-1-2.3-2.5-2.6-4.2c-0.3-2,0-4.1,1-5.9l30.8-67.3c1-2.3,2.6-4.4,4.6-5.9
	c3.7-2.5,8.5-2.5,12.2,0c2,1.5,3.5,3.6,4.4,5.9l31,67.3c1,1.8,1.4,3.9,1.1,5.9c-0.2,1.7-1.1,3.2-2.5,4.2c-1.6,1.1-3.4,1.6-5.3,1.5
	c-2.3,0.1-4.5-0.6-6.3-2c-1.7-1.7-3.1-3.7-3.9-6l-7.2-16.7l7.4,5.2h-50l7.4-5.2l-7.1,16.7c-0.8,2.2-2.1,4.3-3.8,6.1
	C864.2,322.4,862.1,323.1,860,322.9z M894.1,257l-15.4,36.6l-3.2-4.6h37.6l-3.2,4.7L894.4,257H894.1z"/>
<path d="M1005.6,321.8c-3.1,0-5.5-0.8-7.2-2.5c-1.7-1.7-2.5-4.1-2.5-7.2V247c0-3.1,0.8-5.5,2.5-7.2c1.7-1.7,4.1-2.5,7.2-2.5h23.4
	c14.5,0,25.6,3.7,33.5,11c7.9,7.3,11.8,17.8,11.8,31.3c0.1,6.2-0.9,12.3-3,18.1c-1.9,5-4.9,9.6-8.8,13.3c-4.1,3.7-8.9,6.5-14.2,8.2
	c-6.2,2-12.8,2.9-19.3,2.8L1005.6,321.8z M1014.5,306.6h13.4c4,0.1,8-0.5,11.9-1.7c6.5-2,11.5-7,13.4-13.5c1.2-3.9,1.8-7.9,1.7-11.9
	c0-9.1-2.3-15.9-6.8-20.3s-11.3-6.7-20.2-6.7h-13.4L1014.5,306.6z"/>
<path d="M1146,322.9c-3,0-5.4-0.8-7-2.5c-1.7-2-2.6-4.5-2.4-7.1v-67.6c-0.2-2.6,0.7-5.1,2.4-7.1c1.6-1.7,3.9-2.5,7-2.5
	c2.5-0.2,5,0.8,6.8,2.5c1.7,2,2.6,4.5,2.4,7.1v67.6c0,3-0.8,5.4-2.3,7.1C1151.3,322.1,1149,322.9,1146,322.9z"/>
<path d="M1229.5,322.9c-3,0-5.4-0.8-7-2.5c-1.7-2-2.6-4.5-2.4-7.1v-66.6c0-3.1,0.8-5.5,2.5-7.1c1.6-1.6,4-2.4,7-2.4h29.2
	c9.4,0,16.7,2.3,21.8,6.8c5.1,4.6,7.7,10.9,7.7,19.1c0.1,4.8-1.1,9.5-3.5,13.7c-2.4,3.9-5.9,7-10,8.9c-4.4,2.1-9.7,3.1-16,3.1l1-2
	h4.9c3.1-0.1,6.2,0.8,8.8,2.5c2.8,1.9,5,4.5,6.5,7.5l7.4,13.8c1.1,1.8,1.6,3.8,1.6,5.9c0,1.8-0.8,3.5-2.2,4.7
	c-1.3,1.2-3.3,1.8-6,1.8c-2.3,0.1-4.5-0.5-6.4-1.7c-1.8-1.4-3.3-3.1-4.4-5.2l-11.5-21.2c-0.9-2-2.5-3.6-4.4-4.6
	c-2-0.9-4.1-1.3-6.3-1.2h-9.1v24.2c0,3-0.8,5.4-2.3,7.1S1232.6,322.9,1229.5,322.9z M1238.8,275.6h16.7c5,0,8.7-1,11.2-3
	s3.8-5,3.8-9c0-3.9-1.3-6.9-3.8-8.9s-6.3-3-11.2-3h-16.7V275.6z"/>
<path d="M1361.3,321.8c-3.1,0-5.5-0.8-7.2-2.5s-2.5-4.1-2.5-7.2V247c0-3.1,0.8-5.5,2.5-7.2c1.7-1.7,4.1-2.5,7.2-2.5h41.9
	c2-0.1,4,0.5,5.5,1.9c1.3,1.5,2,3.4,1.9,5.3c0.5,3.6-2.1,6.9-5.7,7.3c-0.6,0.1-1.1,0.1-1.7,0h-33.8v19.8h31.1c2.5,0,4.3,0.6,5.6,1.9
	c2.5,3.2,2.5,7.7,0,10.9c-1.2,1.2-3.1,1.9-5.6,1.9h-31.1v21.1h33.8c2-0.1,4,0.5,5.5,1.9c1.3,1.5,2,3.4,1.9,5.3
	c0.5,3.6-2.1,6.9-5.7,7.3c-0.6,0.1-1.1,0.1-1.7,0L1361.3,321.8z"/>
<path d="M1472.2,322.8c-2.3,0.2-4.6-0.6-6.4-2.2c-1.5-1.6-2.4-3.7-2.3-5.9c0-1.8,0.5-3.5,1.6-4.9c1.2-1.4,2.9-2.3,4.7-2.2l3.5-0.2
	c3.2-0.2,5.6-1.2,7.2-2.8c1.6-1.6,2.4-4,2.4-7.3v-51.7c0-3,0.8-5.4,2.4-7c1.8-1.7,4.3-2.6,6.8-2.5c3,0,5.4,0.8,7,2.5s2.4,4,2.4,7
	v51.5c0.1,4.6-0.8,9.2-2.8,13.4c-1.9,3.6-4.8,6.6-8.5,8.5c-4.3,2.2-9.1,3.4-13.9,3.6L1472.2,322.8z"/>
<path d="M1605.6,323.1c-7.7,0.2-15.2-1.7-21.9-5.5c-6.2-3.6-11.3-8.9-14.6-15.3c-3.5-6.6-5.2-14.2-5.2-22.9
	c-0.1-6.1,0.9-12.2,2.9-17.9c1.8-5.1,4.7-9.8,8.5-13.7c3.7-3.8,8.3-6.8,13.3-8.8c5.4-2.1,11.3-3.2,17.1-3.1c8.5,0,15.8,1.8,22.1,5.4
	c6.2,3.6,11.3,8.8,14.6,15.2c3.5,6.5,5.2,14.1,5.2,22.9c0.1,6.1-0.9,12.2-3,18c-1.9,5.1-4.8,9.8-8.5,13.8c-3.7,3.9-8.2,6.9-13.2,8.9
	C1617.3,322.2,1611.5,323.2,1605.6,323.1z M1605.6,307.3c4.3,0.1,8.5-1,12.1-3.3c3.5-2.4,6.1-5.7,7.7-9.6c1.9-4.7,2.8-9.8,2.7-14.9
	c0-8.8-2-15.6-5.9-20.5c-3.9-4.8-9.4-7.3-16.6-7.3c-4.2-0.1-8.4,1-12,3.2c-3.5,2.3-6.2,5.6-7.7,9.5c-1.9,4.8-2.8,9.9-2.6,15
	c0,8.7,2,15.5,5.9,20.5C1593.1,304.9,1598.5,307.3,1605.6,307.3z"/>
</svg>
