<svg width="60" height="60" viewBox="0 0 60 60" fill="none" xmlns="http://www.w3.org/2000/svg">
<path d="M50 30C50 41.0467 41.0453 50 30.002 50C18.9587 50 10 41.048 10 30C10 18.952 18.9538 10 30.0007 10C41.0476 10 50 18.9542 50 30Z" fill="#608478"/>
<path d="M30.1447 41.6783C36.7805 41.6783 42.1599 36.2983 42.1599 29.6618C42.1599 23.0253 36.7805 17.6454 30.1447 17.6454C23.5088 17.6454 18.1294 23.0253 18.1294 29.6618C18.1294 36.2983 23.5088 41.6783 30.1447 41.6783Z" fill="white"/>
<path d="M20.7811 29.6618C20.7811 34.8338 24.9732 39.0267 30.1446 39.0267C35.3161 39.0267 39.5082 34.8338 39.5082 29.6618C39.5082 24.4898 35.3166 20.2969 30.1446 20.2969C24.9727 20.2969 20.7811 24.4889 20.7811 29.6618Z" fill="#3C6255"/>
<path d="M24.0528 29.6617C24.0528 30.8668 24.4101 32.0448 25.0796 33.0468C25.749 34.0488 26.7005 34.8297 27.8138 35.2909C28.927 35.752 30.152 35.8727 31.3338 35.6375C32.5156 35.4024 33.6011 34.8221 34.4531 33.9699C35.3051 33.1178 35.8853 32.0321 36.1204 30.8501C36.3554 29.6682 36.2347 28.4431 35.7735 27.3298C35.3123 26.2165 34.5314 25.2649 33.5295 24.5955C32.5275 23.926 31.3496 23.5688 30.1446 23.5688C29.3446 23.5688 28.5524 23.7264 27.8133 24.0327C27.0742 24.3389 26.4026 24.7877 25.8369 25.3534C25.2712 25.9192 24.8225 26.5909 24.5164 27.3301C24.2103 28.0693 24.0528 28.8616 24.0528 29.6617Z" fill="white"/>
<path d="M30.1446 31.8618C31.3596 31.8618 32.3444 30.8768 32.3444 29.6618C32.3444 28.4468 31.3596 27.4618 30.1446 27.4618C28.9297 27.4618 27.9449 28.4468 27.9449 29.6618C27.9449 30.8768 28.9297 31.8618 30.1446 31.8618Z" fill="#3C6255"/>
<path d="M44.3926 29.6924H30.378V30.1608H44.3926V29.6924Z" fill="#6B827A"/>
<path d="M44.3926 29.224H30.378V29.6924H44.3926V29.224Z" fill="#8CA49B"/>
<path d="M39.3584 30.1689H44.1606L45.2969 31.6054H40.4947L39.3584 30.1689Z" fill="#C4D7D0"/>
<path d="M39.3584 29.2254H44.1606L45.2969 27.7889H40.4947L39.3584 29.2254Z" fill="#C4D7D0"/>
</svg>
