<svg width="60" height="60" viewBox="0 0 60 60" fill="none" xmlns="http://www.w3.org/2000/svg">
<path d="M50 30C50 41.0467 41.0453 50 30.002 50C18.9587 50 10 41.048 10 30C10 18.952 18.9538 10 30.0007 10C41.0476 10 50 18.9542 50 30Z" fill="#E2EDE9"/>
<path fill-rule="evenodd" clip-rule="evenodd" d="M33.8008 41.2018H26.9197V45.7898H27.0201L27.9391 46.7085L29.4039 46.8689V47.06L30.2785 46.9645L31.1535 47.06V46.8689L32.6182 46.7085L33.5372 45.7898H33.8008V41.2018Z" fill="#3C6255"/>
<path d="M34.8521 42.8102C34.8521 43.0253 34.7668 43.2316 34.615 43.3839C34.4631 43.5362 34.257 43.6221 34.042 43.6227H26.5165C26.3011 43.6225 26.0946 43.5369 25.9424 43.3846C25.7901 43.2322 25.7046 43.0256 25.7046 42.8102C25.7051 42.5952 25.7908 42.3891 25.943 42.2372C26.0952 42.0853 26.3015 42 26.5165 42H34.042C34.1486 41.9999 34.2543 42.0209 34.3528 42.0617C34.4514 42.1025 34.5409 42.1623 34.6164 42.2377C34.6918 42.3131 34.7517 42.4026 34.7925 42.5012C34.8333 42.5997 34.8543 42.7053 34.8543 42.812L34.8521 42.8102Z" fill="#4E7266"/>
<path d="M34.8521 45.0742C34.8521 45.2893 34.7668 45.4955 34.6149 45.6477C34.4631 45.8 34.257 45.8857 34.042 45.8862H26.5165C26.3012 45.8862 26.0947 45.8007 25.9424 45.6484C25.7901 45.4961 25.7046 45.2896 25.7046 45.0742C25.7046 44.8588 25.7901 44.6523 25.9424 44.5C26.0947 44.3478 26.3012 44.2622 26.5165 44.2622H34.042C34.1486 44.2621 34.2543 44.2831 34.3528 44.3239C34.4514 44.3647 34.5409 44.4245 34.6164 44.4999C34.6918 44.5753 34.7517 44.6648 34.7925 44.7634C34.8333 44.8619 34.8543 44.9675 34.8543 45.0742H34.8521Z" fill="#4E7266"/>
<path d="M32.8838 47.1409C32.8838 47.2476 32.8628 47.3532 32.822 47.4518C32.7811 47.5503 32.7213 47.6399 32.6459 47.7153C32.5704 47.7907 32.4809 47.8505 32.3823 47.8913C32.2837 47.932 32.1781 47.953 32.0715 47.9529H28.4869C28.2715 47.9529 28.065 47.8674 27.9127 47.7151C27.7603 47.5629 27.6747 47.3563 27.6746 47.1409C27.6746 46.9255 27.7601 46.7188 27.9125 46.5664C28.0648 46.4141 28.2715 46.3285 28.4869 46.3285H32.0728C32.1795 46.3284 32.2851 46.3494 32.3837 46.3902C32.4823 46.431 32.5719 46.4909 32.6473 46.5663C32.7228 46.6418 32.7826 46.7314 32.8234 46.83C32.8642 46.9286 32.8852 47.0342 32.8851 47.1409H32.8838Z" fill="#4E7266"/>
<path d="M30.2785 18.5924C25.0932 18.5924 20.875 22.7324 20.875 27.8209C20.875 30.4337 21.9793 33.2986 23.8276 35.4844L23.9054 35.5862C24.1462 35.8929 26.2607 38.6351 26.2607 40.5484C26.2616 40.7165 26.3185 40.8794 26.4224 41.0115C26.5263 41.1436 26.6713 41.2373 26.8344 41.2777V41.3004H33.2489V41.2515L33.8684 41.2409C34.0048 41.1838 34.1213 41.0878 34.2033 40.9647C34.2853 40.8417 34.3291 40.6972 34.3292 40.5493C34.3292 38.8573 36.029 36.3942 36.6845 35.5875C36.7095 35.5566 36.7312 35.5233 36.7494 35.488L36.8112 35.3893C38.6119 33.2022 39.6824 30.3804 39.6824 27.8209C39.6824 22.7324 35.4642 18.5929 30.2785 18.5924Z" fill="#608478"/>
<path d="M33.9393 32.1204C33.9393 32.0378 33.9358 31.5222 33.6038 31.1769C33.4083 30.9729 33.143 30.8698 32.815 30.8698C32.3848 30.8698 32.0413 31.0089 31.7929 31.2831C31.3223 31.8058 31.3809 32.6364 31.3907 32.74V32.8675H29.1763V32.74C29.1856 32.6364 29.2447 31.8066 28.7741 31.2831C28.527 31.0089 28.1839 30.8698 27.752 30.8698C27.4244 30.8698 27.1591 30.9729 26.9631 31.1769C26.6312 31.5222 26.6267 32.0378 26.6281 32.1204C26.6236 32.1938 26.6147 32.5715 26.8814 32.8644C27.0862 33.0902 27.3938 33.2044 27.7955 33.2044H28.8385V41.2889H29.1754V33.2044H31.3911V41.2889H31.7276V33.2044H32.7706C33.1705 33.2044 33.4816 33.0902 33.6851 32.8644C33.9531 32.5715 33.9438 32.1938 33.9393 32.1204ZM28.8425 32.7146V32.8675H27.7964C27.4951 32.8675 27.2724 32.7911 27.1338 32.6404C26.9431 32.4333 26.9649 32.1418 26.9654 32.14V32.1289V32.1178C26.9654 32.1133 26.9534 31.6733 27.2076 31.4089C27.3409 31.2724 27.5186 31.2062 27.7524 31.2062C28.083 31.2062 28.3421 31.308 28.5225 31.5075C28.9145 31.9413 28.8425 32.7066 28.8425 32.7146ZM33.4367 32.6404C33.2981 32.7911 33.0754 32.8675 32.7737 32.8675H31.7284V32.7146C31.7284 32.7066 31.6542 31.9413 32.0457 31.5075C32.2262 31.308 32.4853 31.2062 32.8155 31.2062C33.0505 31.2062 33.2287 31.2724 33.3603 31.4089C33.6149 31.672 33.6029 32.1133 33.6029 32.1178V32.1289V32.14C33.6029 32.14 33.6247 32.4333 33.4345 32.6404H33.4367Z" fill="white"/>
<path d="M20.7264 34.5299C20.7159 34.5022 20.6999 34.4769 20.6796 34.4554C20.6592 34.434 20.6348 34.4167 20.6078 34.4047C20.5808 34.3926 20.5516 34.386 20.522 34.3852C20.4924 34.3844 20.463 34.3895 20.4354 34.4001L17.3246 35.5899C17.2824 35.606 17.2461 35.6343 17.2203 35.6713C17.1945 35.7083 17.1803 35.7521 17.1797 35.7972C17.1791 35.8423 17.192 35.8866 17.2168 35.9242C17.2416 35.9619 17.2771 35.9913 17.3188 36.0085C17.3722 36.0301 17.432 36.0301 17.4854 36.0085L20.5962 34.8183C20.6515 34.797 20.6961 34.7548 20.7205 34.7008C20.7449 34.6468 20.747 34.5854 20.7264 34.5299Z" fill="white"/>
<path d="M19.3386 31.6573C19.3354 31.6279 19.3264 31.5994 19.3121 31.5734C19.2979 31.5475 19.2786 31.5246 19.2555 31.5061C19.2324 31.4876 19.2058 31.4738 19.1774 31.4656C19.1489 31.4574 19.1191 31.4549 19.0897 31.4582L15.7794 31.8222C15.7499 31.8254 15.7214 31.8344 15.6955 31.8487C15.6695 31.8629 15.6466 31.8822 15.6281 31.9053C15.6096 31.9284 15.5959 31.955 15.5877 31.9834C15.5795 32.0119 15.577 32.0417 15.5803 32.0711C15.5836 32.1016 15.5932 32.1311 15.6085 32.1578C15.6238 32.1844 15.6445 32.2075 15.6692 32.2258C15.7149 32.2608 15.7724 32.2768 15.8296 32.2702L19.1404 31.9044C19.1993 31.8977 19.2532 31.868 19.2904 31.8217C19.3275 31.7754 19.3448 31.7163 19.3386 31.6573Z" fill="white"/>
<path d="M18.692 28.5244C18.692 28.4948 18.6862 28.4655 18.6749 28.4381C18.6636 28.4107 18.647 28.3859 18.6261 28.3649C18.6052 28.344 18.5803 28.3274 18.5529 28.3161C18.5256 28.3048 18.4962 28.299 18.4666 28.2991H15.1363C15.0912 28.2991 15.0472 28.3126 15.0098 28.3378C14.9725 28.3631 14.9436 28.399 14.9269 28.4409C14.9102 28.4828 14.9065 28.5287 14.9161 28.5728C14.9258 28.6168 14.9485 28.6569 14.9812 28.688C15.0228 28.7281 15.0785 28.7504 15.1363 28.7502H18.4666C18.4963 28.7502 18.5256 28.7444 18.553 28.7331C18.5804 28.7218 18.6053 28.7051 18.6263 28.6842C18.6472 28.6632 18.6638 28.6383 18.6751 28.6108C18.6863 28.5834 18.6921 28.554 18.692 28.5244Z" fill="white"/>
<path d="M39.8997 34.5298C39.9103 34.5022 39.9262 34.4769 39.9465 34.4555C39.9668 34.434 39.9912 34.4167 40.0182 34.4047C40.0451 34.3926 40.0743 34.386 40.1038 34.3852C40.1334 34.3844 40.1628 34.3895 40.1904 34.4001L43.3012 35.5898C43.357 35.6112 43.402 35.6539 43.4264 35.7085C43.4507 35.7631 43.4523 35.8251 43.4309 35.8809C43.4096 35.9368 43.3669 35.9818 43.3123 36.0061C43.2577 36.0305 43.1957 36.0321 43.1399 36.0107L40.0291 34.8205C40.0015 34.8099 39.9763 34.794 39.9548 34.7737C39.9334 34.7533 39.9162 34.729 39.9042 34.702C39.8922 34.675 39.8856 34.6459 39.8848 34.6163C39.8841 34.5868 39.8891 34.5574 39.8997 34.5298Z" fill="white"/>
<path d="M41.2858 31.6573C41.289 31.6279 41.298 31.5994 41.3122 31.5735C41.3265 31.5475 41.3457 31.5247 41.3687 31.5062C41.3918 31.4877 41.4183 31.4739 41.4467 31.4657C41.4751 31.4575 41.5049 31.4549 41.5343 31.4582L44.845 31.8235C44.9037 31.8308 44.9572 31.8608 44.9939 31.9072C45.0307 31.9536 45.0477 32.0125 45.0413 32.0713C45.035 32.1302 45.0057 32.1841 44.96 32.2216C44.9142 32.259 44.8555 32.2769 44.7966 32.2715L41.4863 31.9057C41.4567 31.9027 41.4281 31.8939 41.402 31.8798C41.3759 31.8656 41.3528 31.8465 41.3342 31.8234C41.3155 31.8002 41.3017 31.7737 41.2934 31.7452C41.2851 31.7167 41.2825 31.6868 41.2858 31.6573Z" fill="white"/>
<path d="M41.9341 28.5244C41.934 28.4948 41.9398 28.4655 41.9511 28.4382C41.9623 28.4109 41.9789 28.386 41.9998 28.3651C42.0207 28.3442 42.0455 28.3276 42.0728 28.3162C42.1001 28.3049 42.1294 28.2991 42.159 28.2991H45.4919C45.537 28.299 45.5811 28.3126 45.6184 28.3378C45.6558 28.3631 45.6846 28.399 45.7013 28.4409C45.718 28.4828 45.7218 28.5287 45.7121 28.5728C45.7024 28.6168 45.6798 28.6569 45.647 28.688C45.6054 28.7281 45.5498 28.7504 45.4919 28.7502H42.159C42.1293 28.7502 42.1 28.7443 42.0727 28.733C42.0454 28.7216 42.0205 28.705 41.9996 28.684C41.9787 28.663 41.9622 28.6381 41.9509 28.6107C41.9397 28.5834 41.934 28.554 41.9341 28.5244Z" fill="white"/>
<path d="M18.9702 25.5458C18.9838 25.4876 18.9738 25.4265 18.9423 25.3757C18.9108 25.3249 18.8604 25.2888 18.8022 25.2751L15.5581 24.5147C15.4999 24.5011 15.4388 24.5112 15.388 24.5427C15.3373 24.5742 15.3011 24.6245 15.2875 24.6827C15.2741 24.7409 15.2843 24.8019 15.3158 24.8526C15.3472 24.9033 15.3974 24.9395 15.4555 24.9534L18.6996 25.7138C18.7577 25.7274 18.8189 25.7173 18.8697 25.6858C18.9204 25.6543 18.9566 25.604 18.9702 25.5458Z" fill="white"/>
<path d="M20.0671 23.0039C20.0998 22.9543 20.1115 22.8937 20.0996 22.8354C20.0878 22.7771 20.0534 22.7259 20.004 22.6928L17.2292 20.8506C17.1916 20.8257 17.1474 20.8126 17.1023 20.8131C17.0572 20.8136 17.0133 20.8276 16.9763 20.8533C16.9392 20.879 16.9107 20.9152 16.8945 20.9573C16.8783 20.9994 16.875 21.0453 16.8852 21.0893C16.8977 21.1456 16.9317 21.1949 16.9799 21.2266L19.7547 23.0666C19.7793 23.0831 19.8069 23.0946 19.8359 23.1004C19.865 23.1062 19.8949 23.1062 19.924 23.1004C19.953 23.0945 19.9806 23.083 20.0052 23.0665C20.0297 23.0499 20.0508 23.0287 20.0671 23.0039Z" fill="white"/>
<path d="M22.1238 20.6222C22.1687 20.5828 22.1961 20.5272 22.2 20.4677C22.2039 20.4081 22.184 20.3494 22.1447 20.3044L19.9498 17.7987C19.9303 17.7764 19.9066 17.7582 19.8801 17.7452C19.8535 17.7321 19.8247 17.7244 19.7952 17.7225C19.7656 17.7206 19.736 17.7246 19.7081 17.7341C19.6801 17.7437 19.6542 17.7587 19.632 17.7782C19.6097 17.7977 19.5915 17.8213 19.5784 17.8478C19.5652 17.8743 19.5574 17.9032 19.5554 17.9327C19.5535 17.9622 19.5573 17.9918 19.5668 18.0198C19.5763 18.0479 19.5912 18.0737 19.6107 18.096L21.8056 20.6013C21.8251 20.6236 21.8488 20.6418 21.8754 20.6549C21.9019 20.6681 21.9308 20.6758 21.9604 20.6777C21.9899 20.6797 22.0196 20.6758 22.0476 20.6663C22.0757 20.6567 22.1015 20.6418 22.1238 20.6222Z" fill="white"/>
<path d="M24.3262 18.7111C24.3532 18.6991 24.3776 18.6819 24.3979 18.6604C24.4182 18.6389 24.4341 18.6136 24.4447 18.586C24.4552 18.5584 24.4602 18.5289 24.4593 18.4994C24.4584 18.4698 24.4517 18.4407 24.4395 18.4138L23.0823 15.372C23.0705 15.3446 23.0534 15.3199 23.0319 15.2992C23.0105 15.2785 22.9851 15.2622 22.9573 15.2514C22.9296 15.2405 22.8999 15.2353 22.8701 15.236C22.8403 15.2367 22.8109 15.2434 22.7837 15.2555C22.7565 15.2676 22.7319 15.2851 22.7115 15.3068C22.691 15.3285 22.6751 15.354 22.6646 15.382C22.6541 15.4099 22.6492 15.4396 22.6503 15.4694C22.6514 15.4992 22.6583 15.5285 22.6708 15.5556L24.0285 18.5969C24.0404 18.624 24.0577 18.6485 24.0791 18.6689C24.1006 18.6893 24.1259 18.7053 24.1536 18.7159C24.1813 18.7265 24.2107 18.7316 24.2404 18.7308C24.27 18.7299 24.2992 18.7233 24.3262 18.7111Z" fill="white"/>
<path d="M27.129 17.4844C27.1575 17.4766 27.1842 17.4632 27.2075 17.4451C27.2309 17.4269 27.2504 17.4043 27.265 17.3786C27.2795 17.3529 27.2889 17.3245 27.2925 17.2952C27.2961 17.2658 27.2938 17.236 27.2859 17.2075L26.3984 13.9973C26.3912 13.9681 26.3782 13.9406 26.3601 13.9165C26.3421 13.8924 26.3194 13.8721 26.2934 13.8569C26.2675 13.8417 26.2387 13.8318 26.2088 13.8279C26.179 13.824 26.1487 13.8262 26.1196 13.8342C26.0906 13.8422 26.0635 13.856 26.0399 13.8746C26.0163 13.8933 25.9966 13.9165 25.9822 13.9429C25.9677 13.9693 25.9586 13.9984 25.9555 14.0283C25.9524 14.0583 25.9554 14.0885 25.9642 14.1173L26.853 17.3275C26.869 17.3848 26.907 17.4335 26.9587 17.4628C27.0104 17.4922 27.0716 17.5 27.129 17.4844Z" fill="white"/>
<path d="M41.6356 25.4604C41.622 25.4023 41.632 25.3411 41.6635 25.2903C41.695 25.2396 41.7454 25.2034 41.8035 25.1898L45.0477 24.4293C45.0916 24.419 45.1376 24.4221 45.1797 24.4382C45.2219 24.4544 45.2582 24.4828 45.284 24.5198C45.3098 24.5568 45.3239 24.6007 45.3245 24.6458C45.325 24.691 45.3121 24.7352 45.2872 24.7729C45.2557 24.8213 45.2066 24.8556 45.1503 24.8684L41.9062 25.6289C41.8774 25.6357 41.8475 25.6367 41.8182 25.6319C41.789 25.6271 41.761 25.6165 41.7359 25.6009C41.7107 25.5852 41.6889 25.5648 41.6717 25.5407C41.6545 25.5166 41.6422 25.4893 41.6356 25.4604Z" fill="white"/>
<path d="M40.5387 22.919C40.5061 22.8693 40.4944 22.8087 40.5062 22.7505C40.518 22.6922 40.5524 22.641 40.6018 22.6079L43.3767 20.7657C43.4265 20.7356 43.4861 20.7259 43.5429 20.7386C43.5997 20.7514 43.6494 20.7856 43.6816 20.8342C43.7138 20.8827 43.7259 20.9418 43.7156 20.9991C43.7052 21.0564 43.6731 21.1075 43.626 21.1417L40.8511 22.9821C40.8265 22.9986 40.7989 23.0101 40.7698 23.0158C40.7408 23.0216 40.7108 23.0215 40.6818 23.0157C40.6527 23.0098 40.6252 22.9983 40.6006 22.9817C40.576 22.9651 40.555 22.9438 40.5387 22.919Z" fill="white"/>
<path d="M38.482 20.5378C38.4371 20.4984 38.4097 20.4427 38.4058 20.383C38.4018 20.3234 38.4217 20.2646 38.4611 20.2196L40.656 17.7143C40.6954 17.6693 40.7511 17.6419 40.8108 17.6379C40.8704 17.634 40.9292 17.654 40.9742 17.6934C41.0191 17.7328 41.0466 17.7885 41.0505 17.8482C41.0544 17.9079 41.0345 17.9667 40.9951 18.0116L38.8002 20.5165C38.7807 20.5389 38.7571 20.5572 38.7305 20.5704C38.704 20.5836 38.6751 20.5914 38.6455 20.5933C38.6159 20.5953 38.5863 20.5914 38.5582 20.5819C38.5301 20.5724 38.5042 20.5574 38.482 20.5378Z" fill="white"/>
<path d="M36.28 18.6248C36.253 18.6128 36.2286 18.5955 36.2082 18.574C36.1878 18.5525 36.1719 18.5272 36.1613 18.4996C36.1507 18.4719 36.1457 18.4424 36.1466 18.4128C36.1474 18.3832 36.1541 18.354 36.1663 18.327L37.5235 15.2857C37.5419 15.2446 37.5723 15.21 37.6106 15.1862C37.6489 15.1625 37.6935 15.1508 37.7385 15.1526C37.7835 15.1545 37.827 15.1697 37.8633 15.1964C37.8995 15.2232 37.927 15.2601 37.9421 15.3026C37.9615 15.357 37.9589 15.4167 37.935 15.4693L36.5773 18.5106C36.5654 18.5377 36.5482 18.5621 36.5268 18.5826C36.5054 18.603 36.4801 18.619 36.4525 18.6296C36.4248 18.6402 36.3954 18.6452 36.3658 18.6444C36.3362 18.6436 36.307 18.6369 36.28 18.6248Z" fill="white"/>
<path d="M33.4767 17.3994C33.448 17.3919 33.4212 17.3787 33.3977 17.3606C33.3742 17.3425 33.3545 17.3199 33.3399 17.2941C33.3253 17.2683 33.316 17.2398 33.3125 17.2103C33.3091 17.1809 33.3116 17.151 33.3198 17.1225L34.2086 13.9119C34.2166 13.8833 34.23 13.8566 34.2482 13.8333C34.2665 13.81 34.2891 13.7904 34.3149 13.7758C34.3406 13.7613 34.369 13.7519 34.3984 13.7483C34.4278 13.7447 34.4576 13.7469 34.4862 13.7548C34.5147 13.7627 34.5414 13.7761 34.5648 13.7944C34.5881 13.8126 34.6076 13.8352 34.6222 13.861C34.6368 13.8868 34.6462 13.9152 34.6498 13.9446C34.6534 13.974 34.6512 14.0038 34.6433 14.0323L33.7545 17.2425C33.7466 17.2711 33.7332 17.2979 33.715 17.3213C33.6967 17.3447 33.674 17.3642 33.6482 17.3788C33.6224 17.3934 33.594 17.4027 33.5645 17.4062C33.5351 17.4098 33.5053 17.4075 33.4767 17.3994Z" fill="white"/>
<path d="M30.2477 16.9902C30.3073 16.9895 30.3641 16.9652 30.4058 16.9226C30.4474 16.88 30.4705 16.8226 30.4699 16.7631L30.4424 13.4324C30.442 13.3872 30.4282 13.3432 30.4025 13.306C30.3769 13.2688 30.3406 13.2402 30.2985 13.2239C30.2564 13.2075 30.2104 13.2042 30.1664 13.2144C30.1224 13.2246 30.0824 13.2477 30.0517 13.2809C30.0123 13.323 29.9908 13.3787 29.9917 13.4364L30.0215 16.7671C30.0221 16.8266 30.0462 16.8835 30.0886 16.9253C30.131 16.9671 30.1882 16.9904 30.2477 16.9902Z" fill="white"/>
<path d="M23.9746 31.9377C23.8982 31.9344 23.8237 31.9129 23.7572 31.8751C23.6907 31.8372 23.6343 31.784 23.5924 31.7199C23.5711 31.6875 23.0636 30.9035 22.7036 29.6671C22.2277 28.0279 22.2375 26.3537 22.7321 24.8248C23.0191 23.9438 23.5084 23.1423 24.1608 22.4844C24.7192 21.9237 25.3609 21.4527 26.0633 21.0884C26.8138 20.6885 27.6164 20.3953 28.448 20.2173C28.5721 20.1975 28.699 20.2271 28.8016 20.2998C28.9042 20.3724 28.9743 20.4823 28.997 20.6059C29.0196 20.7296 28.993 20.8572 28.9228 20.9615C28.8526 21.0658 28.7444 21.1384 28.6213 21.1639C27.8775 21.328 27.1598 21.5933 26.4882 21.9524C25.0319 22.7284 24.0764 23.7946 23.6471 25.1208C22.5934 28.3786 24.3786 31.1653 24.3968 31.1933C24.4451 31.2674 24.4721 31.3534 24.4748 31.4418C24.4774 31.5303 24.4557 31.6177 24.4119 31.6946C24.3682 31.7715 24.3041 31.8349 24.2267 31.8778C24.1494 31.9206 24.0617 31.9414 23.9733 31.9377H23.9746Z" fill="white"/>
</svg>
