<svg xmlns="http://www.w3.org/2000/svg" xmlns:xlink="http://www.w3.org/1999/xlink" viewBox="0 0 1200 630"><defs><style>.cls-1{fill:none;}.cls-2{fill:url(#linear-gradient);}.cls-3{fill:#d6d6dd;opacity:0.18;}.cls-4{opacity:0.6;}.cls-5{clip-path:url(#clip-path);}.cls-6{fill:#a6bb8d;}.cls-7{fill:#3c6255;}</style><linearGradient id="linear-gradient" x1="532.02" y1="86.16" x2="781.78" y2="926.88" gradientUnits="userSpaceOnUse"><stop offset="0" stop-color="#fff"/><stop offset="1" stop-color="#d6d6dd"/></linearGradient><clipPath id="clip-path"><rect id="SVGID" class="cls-1" width="1200" height="630"/></clipPath></defs><g id="BACKGROUND"><rect class="cls-2" width="1200" height="630"/><polygon class="cls-3" points="0 0.23 0 630 629.76 630 0 0.23"/><polygon class="cls-3" points="1200 630 1200 0.23 570.24 0.23 1200 630"/></g><g id="OBJECTS"><g class="cls-4"><g class="cls-5"><path class="cls-6" d="M12.21,488.42a4.68,4.68,0,1,1-4.68-4.67A4.68,4.68,0,0,1,12.21,488.42Z"/><path class="cls-7" d="M32.66,488.42A4.68,4.68,0,1,1,28,483.75,4.68,4.68,0,0,1,32.66,488.42Z"/><path class="cls-6" d="M53.11,488.42a4.68,4.68,0,1,1-4.68-4.67A4.67,4.67,0,0,1,53.11,488.42Z"/><path class="cls-7" d="M73.56,488.42a4.68,4.68,0,1,1-4.67-4.67A4.67,4.67,0,0,1,73.56,488.42Z"/><path class="cls-7" d="M12.21,508.87a4.68,4.68,0,1,1-4.68-4.67A4.68,4.68,0,0,1,12.21,508.87Z"/><path class="cls-6" d="M32.66,508.87A4.68,4.68,0,1,1,28,504.2,4.68,4.68,0,0,1,32.66,508.87Z"/><path class="cls-7" d="M53.11,508.87a4.68,4.68,0,1,1-4.68-4.67A4.67,4.67,0,0,1,53.11,508.87Z"/><path class="cls-6" d="M73.56,508.87a4.68,4.68,0,1,1-4.67-4.67A4.67,4.67,0,0,1,73.56,508.87Z"/><path class="cls-6" d="M12.21,529.32a4.68,4.68,0,1,1-4.68-4.67A4.68,4.68,0,0,1,12.21,529.32Z"/><path class="cls-7" d="M32.66,529.32A4.68,4.68,0,1,1,28,524.65,4.68,4.68,0,0,1,32.66,529.32Z"/><path class="cls-6" d="M53.11,529.32a4.68,4.68,0,1,1-4.68-4.67A4.67,4.67,0,0,1,53.11,529.32Z"/><path class="cls-7" d="M73.56,529.32a4.68,4.68,0,1,1-4.67-4.67A4.67,4.67,0,0,1,73.56,529.32Z"/><path class="cls-7" d="M51.4,214.61c-4.95,0-7.52-2.48-9.58-4.46-1.77-1.72-3-2.85-5.57-2.85s-3.79,1.14-5.56,2.85c-2.06,2-4.63,4.46-9.59,4.46s-7.52-2.47-9.58-4.46C9.75,208.44,8.57,207.3,6,207.3s-3.79,1.14-5.57,2.85c-2.06,2-4.62,4.46-9.58,4.46s-7.52-2.47-9.59-4.46c-1.77-1.71-2.95-2.85-5.57-2.85s-3.8,1.14-5.57,2.85c-2.07,2-4.63,4.46-9.59,4.46a2.89,2.89,0,0,1-2.89-2.89,2.89,2.89,0,0,1,2.89-2.89c2.62,0,3.8-1.13,5.57-2.85,2.07-2,4.63-4.46,9.59-4.46s7.52,2.47,9.59,4.46c1.77,1.72,2.95,2.85,5.57,2.85s3.79-1.13,5.57-2.85c2.06-2,4.63-4.46,9.58-4.46S13.47,204,15.53,206c1.78,1.72,3,2.85,5.57,2.85s3.8-1.13,5.57-2.85c2.06-2,4.63-4.46,9.58-4.46S43.77,204,45.83,206c1.78,1.72,3,2.85,5.57,2.85S55.19,207.7,57,206c2.06-2,4.63-4.46,9.58-4.46a2.89,2.89,0,0,1,0,5.78c-2.62,0-3.79,1.14-5.57,2.85C58.92,212.14,56.36,214.61,51.4,214.61Z"/><path class="cls-7" d="M1223.64,206.12c-6.81,0-10.33-3.4-13.16-6.13-2.43-2.35-4-3.9-7.64-3.9s-5.2,1.55-7.64,3.9c-2.83,2.73-6.35,6.13-13.16,6.13s-10.32-3.4-13.15-6.13c-2.44-2.35-4.05-3.9-7.65-3.9s-5.21,1.55-7.65,3.9c-2.83,2.73-6.35,6.13-13.15,6.13s-10.33-3.4-13.16-6.13c-2.44-2.35-4-3.9-7.66-3.9s-5.21,1.55-7.65,3.9c-2.83,2.73-6.35,6.13-13.16,6.13a4,4,0,0,1,0-7.94c3.6,0,5.21-1.55,7.65-3.9,2.83-2.73,6.36-6.13,13.16-6.13s10.33,3.4,13.16,6.13c2.44,2.35,4.06,3.9,7.66,3.9s5.21-1.55,7.64-3.9c2.83-2.73,6.36-6.13,13.16-6.13s10.33,3.4,13.16,6.13c2.43,2.35,4,3.9,7.64,3.9s5.21-1.55,7.65-3.9c2.83-2.73,6.35-6.13,13.15-6.13s10.32,3.4,13.15,6.13c2.44,2.35,4,3.9,7.65,3.9s5.2-1.55,7.64-3.9c2.83-2.73,6.35-6.13,13.16-6.13a4,4,0,1,1,0,7.94c-3.6,0-5.21,1.55-7.65,3.9C1234,202.72,1230.44,206.12,1223.64,206.12Z"/><polygon class="cls-6" points="860.04 483.74 752.98 590.8 967.1 590.8 860.04 483.74"/><path class="cls-7" d="M948.15,530.69c-6.28,0-9.7-3.3-11.74-5.27-1.28-1.23-1.3-1.23-1.74-1.23s-.46,0-1.73,1.23c-2.05,2-5.47,5.27-11.75,5.27s-9.7-3.29-11.74-5.26c-1.28-1.24-1.3-1.24-1.74-1.24s-.46,0-1.74,1.23c-2.05,2-5.47,5.27-11.74,5.27s-9.71-3.29-11.75-5.26c-1.28-1.24-1.31-1.24-1.74-1.24s-.47,0-1.75,1.24c-2,2-5.47,5.26-11.75,5.26a7.21,7.21,0,0,1,0-14.41c.44,0,.47,0,1.75-1.23,2-2,5.47-5.27,11.75-5.27s9.7,3.3,11.74,5.27c1.28,1.23,1.31,1.23,1.75,1.23s.46,0,1.74-1.23c2-2,5.46-5.27,11.74-5.27s9.7,3.3,11.74,5.27c1.28,1.23,1.31,1.23,1.74,1.23s.46,0,1.74-1.23c2.05-2,5.47-5.27,11.74-5.27s9.7,3.3,11.75,5.27c1.27,1.23,1.3,1.23,1.73,1.23s.46,0,1.74-1.23c2.05-2,5.47-5.27,11.74-5.27a7.21,7.21,0,1,1,0,14.41c-.43,0-.46,0-1.73,1.23C957.85,527.4,954.43,530.69,948.15,530.69Zm-13.48-9.58c1.63,0,2.27.53,3.88,2.09,1.93,1.86,4.57,4.41,9.6,4.41s7.67-2.55,9.6-4.41c1.62-1.56,2.26-2.09,3.88-2.09a4.12,4.12,0,1,0,0-8.24c-5,0-7.67,2.55-9.59,4.41-1.62,1.55-2.26,2.09-3.89,2.09s-2.26-.54-3.88-2.1c-1.93-1.85-4.56-4.4-9.6-4.4s-7.67,2.55-9.59,4.41c-1.62,1.55-2.26,2.09-3.89,2.09s-2.27-.54-3.88-2.09c-1.93-1.86-4.57-4.41-9.6-4.41s-7.67,2.55-9.6,4.4c-1.62,1.56-2.26,2.1-3.88,2.1s-2.28-.54-3.89-2.1c-1.93-1.85-4.57-4.4-9.6-4.4s-7.68,2.55-9.61,4.4c-1.62,1.56-2.26,2.1-3.89,2.1a4.12,4.12,0,0,0,0,8.24c5,0,7.68-2.55,9.61-4.41,1.61-1.56,2.26-2.09,3.89-2.09s2.27.53,3.88,2.09c1.93,1.86,4.57,4.41,9.61,4.41s7.67-2.55,9.59-4.41c1.62-1.56,2.26-2.09,3.89-2.09s2.27.53,3.88,2.09c1.93,1.86,4.57,4.41,9.6,4.41s7.67-2.55,9.6-4.41C932.41,521.64,933.05,521.11,934.67,521.11Z"/><polygon class="cls-6" points="66.55 103.76 173.61 -3.29 -40.51 -3.29 66.55 103.76"/><path class="cls-7" d="M-9.21,51.66c6.28,0,9.7,3.3,11.74,5.28,1.28,1.23,1.3,1.23,1.74,1.23s.46,0,1.73-1.24c2.05-2,5.47-5.27,11.75-5.27s9.7,3.3,11.74,5.27c1.28,1.24,1.3,1.24,1.74,1.24s.46,0,1.74-1.24c2.05-2,5.47-5.27,11.74-5.27s9.71,3.3,11.75,5.27c1.28,1.24,1.31,1.24,1.74,1.24s.47,0,1.75-1.24c2-2,5.47-5.27,11.75-5.27a7.21,7.21,0,0,1,0,14.41c-.44,0-.47,0-1.75,1.24-2,2-5.47,5.27-11.75,5.27s-9.7-3.3-11.74-5.27c-1.28-1.24-1.31-1.24-1.75-1.24s-.46,0-1.74,1.24c-2,2-5.46,5.27-11.74,5.27s-9.7-3.3-11.74-5.27c-1.28-1.24-1.31-1.24-1.74-1.24s-.46,0-1.74,1.24c-2.05,2-5.47,5.27-11.74,5.27s-9.7-3.3-11.75-5.27c-1.27-1.24-1.3-1.24-1.73-1.24s-.46,0-1.74,1.24c-2.05,2-5.47,5.27-11.74,5.27a7.22,7.22,0,0,1-7.21-7.21,7.21,7.21,0,0,1,7.21-7.2c.43,0,.46,0,1.73-1.24C-18.91,55-15.49,51.66-9.21,51.66ZM4.27,61.25c-1.63,0-2.27-.53-3.88-2.09-1.93-1.86-4.57-4.41-9.6-4.41s-7.67,2.55-9.6,4.41c-1.62,1.56-2.26,2.09-3.88,2.09a4.13,4.13,0,0,0-4.12,4.12,4.13,4.13,0,0,0,4.12,4.12c5,0,7.67-2.55,9.59-4.41C-11.48,63.53-10.84,63-9.21,63s2.26.54,3.88,2.09c1.93,1.86,4.56,4.41,9.6,4.41s7.67-2.55,9.59-4.41C15.48,63.53,16.12,63,17.75,63s2.27.54,3.88,2.09c1.93,1.86,4.57,4.41,9.6,4.41s7.67-2.55,9.6-4.4c1.62-1.56,2.26-2.1,3.88-2.1s2.28.54,3.89,2.1c1.93,1.85,4.57,4.4,9.6,4.4s7.68-2.55,9.61-4.41C69.43,63.53,70.07,63,71.7,63a4.12,4.12,0,0,0,0-8.24c-5,0-7.68,2.55-9.61,4.41-1.61,1.55-2.26,2.09-3.89,2.09s-2.27-.54-3.88-2.09c-1.93-1.86-4.57-4.41-9.61-4.41S37,57.3,35.12,59.16c-1.62,1.56-2.26,2.09-3.89,2.09s-2.27-.53-3.88-2.09c-1.93-1.86-4.57-4.41-9.6-4.41s-7.67,2.55-9.6,4.41C6.53,60.72,5.89,61.25,4.27,61.25Z"/><polygon class="cls-7" points="145.56 500.42 139.18 494.04 145.56 487.67 138.85 480.96 132.47 487.33 126.1 480.96 119.39 487.67 125.77 494.04 119.39 500.42 126.1 507.13 132.47 500.75 138.85 507.13 145.56 500.42"/><polygon class="cls-6" points="53.72 368.86 53.72 361.38 61.2 361.38 61.2 353.51 53.72 353.51 53.72 346.03 45.85 346.03 45.85 353.51 38.37 353.51 38.37 361.38 45.85 361.38 45.85 368.86 53.72 368.86"/><polygon class="cls-7" points="662.48 469.98 662.48 461.7 670.76 461.7 670.76 452.99 662.48 452.99 662.48 444.71 653.77 444.71 653.77 452.99 645.49 452.99 645.49 461.7 653.77 461.7 653.77 469.98 662.48 469.98"/><circle class="cls-6" cx="699.57" cy="493.36" r="11.89"/><path class="cls-6" d="M1113.36,14.14A6.13,6.13,0,1,1,1107.24,8,6.13,6.13,0,0,1,1113.36,14.14Z"/><path class="cls-7" d="M1140.16,14.14A6.13,6.13,0,1,1,1134,8,6.14,6.14,0,0,1,1140.16,14.14Z"/><path class="cls-6" d="M1167,14.14A6.12,6.12,0,1,1,1160.83,8,6.13,6.13,0,0,1,1167,14.14Z"/><path class="cls-7" d="M1193.75,14.14A6.13,6.13,0,1,1,1187.63,8,6.13,6.13,0,0,1,1193.75,14.14Z"/><path class="cls-7" d="M1113.36,40.93a6.13,6.13,0,1,1-6.12-6.12A6.12,6.12,0,0,1,1113.36,40.93Z"/><path class="cls-6" d="M1140.16,40.93a6.13,6.13,0,1,1-6.13-6.12A6.13,6.13,0,0,1,1140.16,40.93Z"/><path class="cls-7" d="M1167,40.93a6.12,6.12,0,1,1-6.12-6.12A6.12,6.12,0,0,1,1167,40.93Z"/><path class="cls-6" d="M1193.75,40.93a6.13,6.13,0,1,1-6.12-6.12A6.12,6.12,0,0,1,1193.75,40.93Z"/><path class="cls-6" d="M1113.36,67.73a6.13,6.13,0,1,1-6.12-6.13A6.12,6.12,0,0,1,1113.36,67.73Z"/><path class="cls-7" d="M1140.16,67.73A6.13,6.13,0,1,1,1134,61.6,6.13,6.13,0,0,1,1140.16,67.73Z"/><path class="cls-6" d="M1167,67.73a6.12,6.12,0,1,1-6.12-6.13A6.12,6.12,0,0,1,1167,67.73Z"/><path class="cls-7" d="M1193.75,67.73a6.13,6.13,0,1,1-6.12-6.13A6.12,6.12,0,0,1,1193.75,67.73Z"/></g></g></g></svg>