<svg xmlns="http://www.w3.org/2000/svg" xmlns:xlink="http://www.w3.org/1999/xlink" viewBox="0 0 1040 500"><defs><style>.cls-1{fill:none;}.cls-2{fill:url(#linear-gradient);}.cls-3{fill:#d6d6dd;opacity:0.18;}.cls-4{opacity:0.6;}.cls-5{clip-path:url(#clip-path);}.cls-6{fill:#3c6255;}.cls-7{fill:#a6bb8d;}.cls-8{fill:#0b5268;}</style><linearGradient id="linear-gradient" x1="464.25" y1="62.34" x2="669.06" y2="751.76" gradientUnits="userSpaceOnUse"><stop offset="0" stop-color="#fff"/><stop offset="1" stop-color="#d6d6dd"/></linearGradient><clipPath id="clip-path"><rect id="SVGID" class="cls-1" width="1040" height="500"/></clipPath></defs><g id="BACKGROUND"><rect class="cls-2" width="1040" height="500"/><polygon class="cls-3" points="0 0.22 0 500 499.78 500 0 0.22"/><polygon class="cls-3" points="1040 500 1040 0.22 540.22 0.22 1040 500"/></g><g id="OBJECTS"><g class="cls-4"><g class="cls-5"><path class="cls-6" d="M10.48,422.28a4,4,0,1,1-4-4A4,4,0,0,1,10.48,422.28Z"/><path class="cls-7" d="M27.83,422.28a4,4,0,1,1-4-4A4,4,0,0,1,27.83,422.28Z"/><path class="cls-6" d="M45.19,422.28a4,4,0,1,1-4-4A4,4,0,0,1,45.19,422.28Z"/><path class="cls-7" d="M62.55,422.28a4,4,0,1,1-4-4A4,4,0,0,1,62.55,422.28Z"/><path class="cls-6" d="M79.91,422.28a4,4,0,1,1-4-4A4,4,0,0,1,79.91,422.28Z"/><path class="cls-7" d="M10.48,439.64a4,4,0,1,1-4-4A4,4,0,0,1,10.48,439.64Z"/><path class="cls-6" d="M27.83,439.64a4,4,0,1,1-4-4A4,4,0,0,1,27.83,439.64Z"/><path class="cls-7" d="M45.19,439.64a4,4,0,1,1-4-4A4,4,0,0,1,45.19,439.64Z"/><path class="cls-7" d="M62.55,439.64a4,4,0,1,1-4-4A4,4,0,0,1,62.55,439.64Z"/><path class="cls-7" d="M79.91,439.64a4,4,0,1,1-4-4A4,4,0,0,1,79.91,439.64Z"/><path class="cls-6" d="M10.48,457a4,4,0,1,1-4-4A4,4,0,0,1,10.48,457Z"/><path class="cls-7" d="M27.83,457a4,4,0,1,1-4-4A4,4,0,0,1,27.83,457Z"/><path class="cls-6" d="M45.19,457a4,4,0,1,1-4-4A4,4,0,0,1,45.19,457Z"/><path class="cls-7" d="M62.55,457a4,4,0,1,1-4-4A4,4,0,0,1,62.55,457Z"/><path class="cls-6" d="M79.91,457a4,4,0,1,1-4-4A4,4,0,0,1,79.91,457Z"/><path class="cls-6" d="M46.13,397.78c-4,0-6.12-2-7.79-3.63-1.45-1.39-2.4-2.31-4.53-2.31s-3.08.92-4.53,2.31c-1.67,1.62-3.76,3.63-7.79,3.63s-6.11-2-7.79-3.63c-1.44-1.39-2.4-2.31-4.53-2.31s-3.08.92-4.53,2.31C3,395.77.88,397.78-3.15,397.78s-6.12-2-7.79-3.63c-1.45-1.39-2.4-2.31-4.54-2.31s-3.08.92-4.53,2.31c-1.68,1.62-3.76,3.63-7.79,3.63a2.35,2.35,0,0,1-2.35-2.35,2.35,2.35,0,0,1,2.35-2.35c2.13,0,3.08-.92,4.53-2.32,1.68-1.61,3.76-3.62,7.79-3.62s6.12,2,7.8,3.62c1.44,1.4,2.4,2.32,4.53,2.32s3.09-.92,4.53-2.32c1.68-1.61,3.76-3.62,7.79-3.62s6.12,2,7.79,3.62c1.45,1.4,2.4,2.32,4.53,2.32s3.09-.92,4.53-2.32c1.68-1.61,3.76-3.62,7.79-3.62s6.12,2,7.79,3.62c1.44,1.4,2.4,2.32,4.53,2.32s3.08-.92,4.53-2.32c1.67-1.61,3.76-3.62,7.79-3.62a2.35,2.35,0,1,1,0,4.7c-2.13,0-3.09.92-4.53,2.31C52.24,395.77,50.16,397.78,46.13,397.78Z"/><path class="cls-6" d="M1077.82,362c-5.54,0-8.4-2.76-10.7-5-2-1.91-3.29-3.18-6.21-3.18s-4.24,1.27-6.22,3.18c-2.3,2.22-5.16,5-10.7,5s-8.39-2.76-10.69-5c-2-1.91-3.3-3.18-6.22-3.18s-4.24,1.27-6.22,3.18c-2.3,2.22-5.16,5-10.7,5s-8.4-2.76-10.7-5c-2-1.91-3.29-3.18-6.22-3.18S989,355.13,987,357c-2.31,2.22-5.17,5-10.71,5a3.23,3.23,0,0,1,0-6.46c2.93,0,4.24-1.26,6.23-3.17,2.3-2.22,5.17-5,10.7-5s8.4,2.76,10.7,5c2,1.91,3.29,3.17,6.22,3.17s4.24-1.26,6.22-3.17c2.3-2.22,5.17-5,10.7-5s8.39,2.76,10.7,5c2,1.91,3.29,3.17,6.21,3.17s4.24-1.26,6.22-3.17c2.3-2.22,5.17-5,10.7-5s8.39,2.76,10.69,5c2,1.91,3.29,3.17,6.22,3.17s4.23-1.26,6.21-3.17c2.3-2.22,5.17-5,10.7-5a3.23,3.23,0,1,1,0,6.45c-2.93,0-4.24,1.27-6.22,3.18C1086.21,359.26,1083.35,362,1077.82,362Z"/><circle class="cls-7" cx="1010.13" cy="29.7" r="25.4"/><path class="cls-8" d="M988.64,71.59a27.89,27.89,0,1,1,27.88-27.89A27.92,27.92,0,0,1,988.64,71.59Zm0-50.8a22.91,22.91,0,1,0,22.91,22.91A22.93,22.93,0,0,0,988.64,20.79Z"/><polygon class="cls-7" points="79.91 82.87 166.96 -4.18 -7.15 -4.18 79.91 82.87"/><path class="cls-6" d="M18.3,40.51a12.9,12.9,0,0,1,9.55,4.28c1,1,1.06,1,1.41,1s.37,0,1.41-1a12.79,12.79,0,0,1,19.1,0c1,1,1.06,1,1.42,1s.37,0,1.41-1a12.79,12.79,0,0,1,19.1,0c1,1,1.06,1,1.42,1s.38,0,1.42-1a12.88,12.88,0,0,1,9.55-4.28,5.86,5.86,0,1,1,0,11.71c-.36,0-.38,0-1.42,1a12.79,12.79,0,0,1-19.1,0c-1-1-1.06-1-1.42-1s-.38,0-1.42,1a12.76,12.76,0,0,1-19.09,0c-1-1-1.06-1-1.42-1s-.37,0-1.41,1a12.77,12.77,0,0,1-19.1,0c-1-1-1.06-1-1.41-1s-.38,0-1.42,1a12.84,12.84,0,0,1-9.54,4.29,5.86,5.86,0,1,1,0-11.72c.35,0,.37,0,1.41-1A12.88,12.88,0,0,1,18.3,40.51Zm11,7.79c-1.32,0-1.84-.44-3.16-1.7C24.54,45.09,22.39,43,18.3,43s-6.24,2.07-7.81,3.58c-1.31,1.26-1.83,1.7-3.15,1.7a3.35,3.35,0,0,0,0,6.7c4.09,0,6.23-2.07,7.8-3.58,1.31-1.27,1.84-1.71,3.16-1.71s1.84.44,3.15,1.71C23,52.93,25.17,55,29.26,55s6.24-2.07,7.8-3.58c1.32-1.27,1.84-1.71,3.16-1.71s1.85.44,3.16,1.71C45,52.93,47.09,55,51.19,55s6.23-2.07,7.8-3.58c1.31-1.27,1.84-1.71,3.16-1.71s1.85.44,3.16,1.71C66.88,52.93,69,55,73.12,55s6.24-2.07,7.81-3.58c1.31-1.27,1.83-1.71,3.16-1.71a3.35,3.35,0,1,0,0-6.69c-4.1,0-6.24,2.07-7.81,3.58-1.31,1.26-1.84,1.7-3.16,1.7s-1.85-.44-3.16-1.7C68.39,45.09,66.24,43,62.15,43s-6.24,2.07-7.81,3.58c-1.31,1.26-1.83,1.7-3.15,1.7s-1.85-.44-3.16-1.7C46.46,45.09,44.31,43,40.22,43S34,45.09,32.42,46.6C31.1,47.86,30.58,48.3,29.26,48.3Z"/><polygon class="cls-7" points="1026.87 390.18 1029.7 390.18 1029.7 393.01 1032.69 393.01 1032.69 390.18 1035.52 390.18 1035.52 387.2 1032.69 387.2 1032.69 384.36 1029.7 384.36 1029.7 387.2 1026.87 387.2 1026.87 390.18"/><polygon class="cls-7" points="1026.87 403.77 1029.7 403.77 1029.7 406.6 1032.69 406.6 1032.69 403.77 1035.52 403.77 1035.52 400.79 1032.69 400.79 1032.69 397.95 1029.7 397.95 1029.7 400.79 1026.87 400.79 1026.87 403.77"/><polygon class="cls-7" points="1026.87 417.36 1029.7 417.36 1029.7 420.19 1032.69 420.19 1032.69 417.36 1035.52 417.36 1035.52 414.38 1032.69 414.38 1032.69 411.54 1029.7 411.54 1029.7 414.38 1026.87 414.38 1026.87 417.36"/><polygon class="cls-7" points="1026.87 430.95 1029.7 430.95 1029.7 433.78 1032.69 433.78 1032.69 430.95 1035.52 430.95 1035.52 427.97 1032.69 427.97 1032.69 425.13 1029.7 425.13 1029.7 427.97 1026.87 427.97 1026.87 430.95"/><polygon class="cls-7" points="1026.87 444.54 1029.7 444.54 1029.7 447.37 1032.69 447.37 1032.69 444.54 1035.52 444.54 1035.52 441.56 1032.69 441.56 1032.69 438.72 1029.7 438.72 1029.7 441.56 1026.87 441.56 1026.87 444.54"/><polygon class="cls-7" points="1026.87 458.13 1029.7 458.13 1029.7 460.96 1032.69 460.96 1032.69 458.13 1035.52 458.13 1035.52 455.14 1032.69 455.14 1032.69 452.31 1029.7 452.31 1029.7 455.14 1026.87 455.14 1026.87 458.13"/><polygon class="cls-7" points="1014.11 390.18 1016.94 390.18 1016.94 393.01 1019.92 393.01 1019.92 390.18 1022.76 390.18 1022.76 387.2 1019.92 387.2 1019.92 384.36 1016.94 384.36 1016.94 387.2 1014.11 387.2 1014.11 390.18"/><polygon class="cls-7" points="1014.11 403.77 1016.94 403.77 1016.94 406.6 1019.92 406.6 1019.92 403.77 1022.76 403.77 1022.76 400.79 1019.92 400.79 1019.92 397.95 1016.94 397.95 1016.94 400.79 1014.11 400.79 1014.11 403.77"/><polygon class="cls-7" points="1014.11 417.36 1016.94 417.36 1016.94 420.19 1019.92 420.19 1019.92 417.36 1022.76 417.36 1022.76 414.38 1019.92 414.38 1019.92 411.54 1016.94 411.54 1016.94 414.38 1014.11 414.38 1014.11 417.36"/><polygon class="cls-7" points="1014.11 430.95 1016.94 430.95 1016.94 433.78 1019.92 433.78 1019.92 430.95 1022.76 430.95 1022.76 427.97 1019.92 427.97 1019.92 425.13 1016.94 425.13 1016.94 427.97 1014.11 427.97 1014.11 430.95"/><polygon class="cls-7" points="1014.11 444.54 1016.94 444.54 1016.94 447.37 1019.92 447.37 1019.92 444.54 1022.76 444.54 1022.76 441.56 1019.92 441.56 1019.92 438.72 1016.94 438.72 1016.94 441.56 1014.11 441.56 1014.11 444.54"/><polygon class="cls-7" points="1014.11 458.13 1016.94 458.13 1016.94 460.96 1019.92 460.96 1019.92 458.13 1022.76 458.13 1022.76 455.14 1019.92 455.14 1019.92 452.31 1016.94 452.31 1016.94 455.14 1014.11 455.14 1014.11 458.13"/><polygon class="cls-7" points="1001.34 390.18 1004.18 390.18 1004.18 393.01 1007.16 393.01 1007.16 390.18 1010 390.18 1010 387.2 1007.16 387.2 1007.16 384.36 1004.18 384.36 1004.18 387.2 1001.34 387.2 1001.34 390.18"/><polygon class="cls-7" points="1001.34 403.77 1004.18 403.77 1004.18 406.6 1007.16 406.6 1007.16 403.77 1010 403.77 1010 400.79 1007.16 400.79 1007.16 397.95 1004.18 397.95 1004.18 400.79 1001.34 400.79 1001.34 403.77"/><polygon class="cls-7" points="1001.34 417.36 1004.18 417.36 1004.18 420.19 1007.16 420.19 1007.16 417.36 1010 417.36 1010 414.38 1007.16 414.38 1007.16 411.54 1004.18 411.54 1004.18 414.38 1001.34 414.38 1001.34 417.36"/><polygon class="cls-7" points="1001.34 430.95 1004.18 430.95 1004.18 433.78 1007.16 433.78 1007.16 430.95 1010 430.95 1010 427.97 1007.16 427.97 1007.16 425.13 1004.18 425.13 1004.18 427.97 1001.34 427.97 1001.34 430.95"/><polygon class="cls-7" points="1001.34 444.54 1004.18 444.54 1004.18 447.37 1007.16 447.37 1007.16 444.54 1010 444.54 1010 441.56 1007.16 441.56 1007.16 438.72 1004.18 438.72 1004.18 441.56 1001.34 441.56 1001.34 444.54"/><polygon class="cls-7" points="1001.34 458.13 1004.18 458.13 1004.18 460.96 1007.16 460.96 1007.16 458.13 1010 458.13 1010 455.14 1007.16 455.14 1007.16 452.31 1004.18 452.31 1004.18 455.14 1001.34 455.14 1001.34 458.13"/><polygon class="cls-7" points="1020.29 101.38 1015.88 96.97 1020.29 92.56 1015.64 87.91 1011.24 92.32 1006.83 87.91 1002.18 92.56 1006.59 96.97 1002.18 101.38 1006.83 106.02 1011.24 101.61 1015.64 106.02 1020.29 101.38"/><circle class="cls-7" cx="20.6" cy="119.99" r="9.67"/></g></g></g></svg>